<?xml version="1.0" encoding="utf-8"?>
<!-- Generator: Adobe Illustrator 22.0.0, SVG Export Plug-In . SVG Version: 6.00 Build 0)  -->
<svg version="1.1" id="Layer_1" xmlns="http://www.w3.org/2000/svg" xmlns:xlink="http://www.w3.org/1999/xlink" x="0px" y="0px"
	 viewBox="0 0 500 500" style="enable-background:new 0 0 500 500;" xml:space="preserve">
<style type="text/css">
	.st0{fill:#83E1E5;}
	.st1{fill:#AAB1BA;}
	.st2{fill:#ECF4F7;}
	.st3{fill:#FDDF7F;}
	.st4{fill:#1C1D21;}
</style>
<g>
	<path class="st0" d="M434.58,60.695H65.42c-17.99,0-32.573,14.583-32.573,32.573v369.159C32.847,480.417,47.43,495,65.42,495
		h369.16c17.99,0,32.573-14.583,32.573-32.573V93.268C467.152,75.279,452.569,60.695,434.58,60.695z"/>
</g>
<g>
	<path class="st1" d="M434.58,60.695H65.42c-17.99,0-32.573,14.583-32.573,32.573v27.023h434.305V93.268
		C467.152,75.279,452.569,60.695,434.58,60.695z"/>
</g>
<g>
	<path class="st2" d="M387.199,290.882H242.473c0,0.002,0.001,0.005,0.001,0.007c-1.083-5.956-6.285-10.475-12.553-10.475
		c-6.266,0-11.468,4.517-12.552,10.47c0-0.001,0-0.002,0-0.003h-58.716c-5.598-10.154-16.403-17.035-28.817-17.035
		c-18.164,0-32.889,14.725-32.889,32.889s14.725,32.889,32.889,32.889c12.415,0,23.219-6.881,28.817-17.035h58.716
		c0-0.001,0-0.002,0-0.003c1.084,5.954,6.286,10.471,12.553,10.471c6.268,0,11.471-4.52,12.553-10.477
		c0,0.003-0.001,0.006-0.001,0.009h144.727c8.756,0,15.854-7.098,15.854-15.854C403.055,297.979,395.956,290.882,387.199,290.882z"
		/>
</g>
<g>
	<path class="st2" d="M322.107,230.764L322.107,230.764c-7.053,0-12.77-5.717-12.77-12.77V190.89c0-7.053,5.717-12.77,12.77-12.77
		l0,0c7.053,0,12.77,5.717,12.77,12.77v27.104C334.877,225.047,329.16,230.764,322.107,230.764z"/>
</g>
<g>
	<path class="st2" d="M293.277,435.353L293.277,435.353c-7.053,0-12.77-5.717-12.77-12.77v-27.104c0-7.053,5.717-12.77,12.77-12.77
		l0,0c7.053,0,12.77,5.717,12.77,12.77v27.104C306.047,429.635,300.33,435.353,293.277,435.353z"/>
</g>
<g>
	<path class="st1" d="M387.199,393.176h-81.37c0.136,0.748,0.218,1.515,0.218,2.303v27.104c0,0.787-0.082,1.555-0.218,2.303h81.37
		c8.756,0,15.854-7.098,15.854-15.854S395.956,393.176,387.199,393.176z"/>
</g>
<g>
	<path class="st3" d="M387.199,188.588h-52.54c0.136,0.748,0.218,1.515,0.218,2.303v27.104c0,0.787-0.082,1.555-0.218,2.303h52.54
		c8.756,0,15.854-7.098,15.854-15.854S395.956,188.588,387.199,188.588z"/>
</g>
<g>
	<path class="st3" d="M309.337,190.891c0-0.788,0.082-1.555,0.218-2.303H158.652l0,0c-5.598-10.154-16.403-17.035-28.817-17.035
		c-18.164,0-32.889,14.725-32.889,32.889s14.725,32.889,32.889,32.889c12.415,0,23.219-6.881,28.817-17.035h150.903
		c-0.136-0.748-0.218-1.515-0.218-2.303V190.891z"/>
</g>
<g>
	<path class="st1" d="M280.507,395.479c0-0.787,0.082-1.555,0.218-2.303H158.652l0,0c-5.598-10.154-16.403-17.035-28.817-17.035
		c-18.164,0-32.889,14.725-32.889,32.889s14.725,32.889,32.889,32.889c12.415,0,23.219-6.881,28.817-17.035h122.073
		c-0.136-0.748-0.218-1.515-0.218-2.302V395.479z"/>
</g>
<path class="st4" d="M191.087,16.534c0-2.762,2.239-5,5-5h6.535V5c0-2.762,2.239-5,5-5s5,2.238,5,5v6.534h6.535c2.761,0,5,2.238,5,5
	s-2.239,5-5,5h-6.535v6.535c0,2.762-2.239,5-5,5s-5-2.238-5-5v-6.535h-6.535C193.326,21.534,191.087,19.296,191.087,16.534z
	 M280.924,21.534h6.535v6.535c0,2.762,2.239,5,5,5s5-2.238,5-5v-6.535h6.534c2.761,0,5-2.238,5-5s-2.239-5-5-5h-6.534V5
	c0-2.762-2.239-5-5-5s-5,2.238-5,5v6.534h-6.535c-2.761,0-5,2.238-5,5S278.163,21.534,280.924,21.534z M472.152,93.268v369.159
	c0,20.718-16.855,37.573-37.573,37.573H65.42c-20.718,0-37.573-16.855-37.573-37.573V93.268c0-20.718,16.855-37.572,37.573-37.572
	h369.16C455.297,55.695,472.152,72.55,472.152,93.268z M462.152,93.268c0-15.203-12.369-27.572-27.573-27.572H65.42
	c-15.204,0-27.573,12.369-27.573,27.572v22.023h386.019c2.761,0,5,2.238,5,5s-2.239,5-5,5H37.848v337.136
	C37.848,477.631,50.217,490,65.42,490h369.16c15.204,0,27.573-12.369,27.573-27.573L462.152,93.268L462.152,93.268z M68.88,90.493
	c0,2.762,2.239,5,5,5h9.309v-10H73.88C71.119,85.493,68.88,87.731,68.88,90.493z M100.25,90.493c0,2.762,2.239,5,5,5h9.309v-10
	h-9.309C102.488,85.493,100.25,87.731,100.25,90.493z M131.619,90.493c0,2.762,2.239,5,5,5h9.309v-10h-9.309
	C133.858,85.493,131.619,87.731,131.619,90.493z M167.724,306.736c0,20.892-16.997,37.889-37.889,37.889
	s-37.889-16.997-37.889-37.889s16.997-37.889,37.889-37.889S167.724,285.845,167.724,306.736z M157.724,306.736
	c0-15.378-12.511-27.889-27.889-27.889s-27.889,12.511-27.889,27.889s12.511,27.889,27.889,27.889S157.724,322.114,157.724,306.736z
	 M229.92,275.415c9.798,0,17.77,7.972,17.77,17.77v27.104c0,9.799-7.972,17.771-17.77,17.771s-17.77-7.972-17.77-17.771v-27.104
	C212.15,283.387,220.122,275.415,229.92,275.415z M229.92,285.415c-4.284,0-7.77,3.485-7.77,7.77v27.104
	c0,4.285,3.486,7.771,7.77,7.771s7.77-3.485,7.77-7.771v-27.104C237.69,288.9,234.205,285.415,229.92,285.415z M175.826,327.591
	h26.3c2.761,0,5-2.238,5-5s-2.239-5-5-5h-26.3c-2.761,0-5,2.238-5,5S173.065,327.591,175.826,327.591z M175.826,295.882h26.3
	c2.761,0,5-2.238,5-5s-2.239-5-5-5h-26.3c-2.761,0-5,2.238-5,5S173.065,295.882,175.826,295.882z M387.199,285.882H258.597
	c-2.761,0-5,2.238-5,5s2.239,5,5,5H387.2c5.985,0,10.854,4.869,10.854,10.854s-4.869,10.854-10.854,10.854H258.597
	c-2.761,0-5,2.238-5,5s2.239,5,5,5H387.2c11.499,0,20.854-9.355,20.854-20.854S398.698,285.882,387.199,285.882z M167.724,204.442
	c0,20.892-16.997,37.889-37.889,37.889s-37.889-16.997-37.889-37.889s16.997-37.889,37.889-37.889S167.724,183.551,167.724,204.442z
	 M157.724,204.442c0-15.378-12.511-27.889-27.889-27.889s-27.889,12.511-27.889,27.889s12.511,27.889,27.889,27.889
	S157.724,219.82,157.724,204.442z M304.337,217.994V190.89c0-9.799,7.972-17.771,17.77-17.771s17.77,7.972,17.77,17.771v27.104
	c0,9.799-7.972,17.771-17.77,17.771S304.337,227.793,304.337,217.994z M314.337,217.994c0,4.285,3.486,7.771,7.77,7.771
	s7.77-3.485,7.77-7.771V190.89c0-4.285-3.486-7.771-7.77-7.771s-7.77,3.485-7.77,7.771V217.994z M175.826,225.297h119.07
	c2.761,0,5-2.238,5-5s-2.239-5-5-5h-119.07c-2.761,0-5,2.238-5,5S173.065,225.297,175.826,225.297z M175.826,193.588h119.07
	c2.761,0,5-2.238,5-5s-2.239-5-5-5h-119.07c-2.761,0-5,2.238-5,5S173.065,193.588,175.826,193.588z M387.199,183.588h-38.295
	c-2.761,0-5,2.238-5,5s2.239,5,5,5h38.295c5.985,0,10.854,4.869,10.854,10.854s-4.869,10.854-10.854,10.854h-38.295
	c-2.761,0-5,2.238-5,5s2.239,5,5,5h38.295c11.499,0,20.854-9.355,20.854-20.854S398.698,183.588,387.199,183.588z M167.724,409.03
	c0,20.893-16.997,37.89-37.889,37.89s-37.889-16.997-37.889-37.89c0-20.892,16.997-37.889,37.889-37.889
	S167.724,388.139,167.724,409.03z M157.724,409.03c0-15.378-12.511-27.889-27.889-27.889s-27.889,12.511-27.889,27.889
	s12.511,27.89,27.889,27.89S157.724,424.408,157.724,409.03z M311.047,395.479v27.104c0,9.798-7.972,17.77-17.77,17.77
	c-9.799,0-17.771-7.972-17.771-17.77v-27.104c0-9.798,7.972-17.77,17.77-17.77C303.076,377.709,311.047,385.681,311.047,395.479z
	 M301.047,395.479c0-4.284-3.486-7.77-7.77-7.77c-4.285,0-7.771,3.485-7.771,7.77v27.104c0,4.284,3.486,7.77,7.77,7.77l0,0
	c4.284,0,7.77-3.485,7.77-7.77v-27.104H301.047z M266.369,419.885h-90.542c-2.761,0-5,2.238-5,5s2.239,5,5,5h90.542
	c2.761,0,5-2.238,5-5S269.13,419.885,266.369,419.885z M266.369,388.176h-90.542c-2.761,0-5,2.238-5,5s2.239,5,5,5h90.542
	c2.761,0,5-2.238,5-5S269.13,388.176,266.369,388.176z M387.199,388.176h-66.21c-2.761,0-5,2.238-5,5s2.239,5,5,5h66.21
	c5.985,0,10.854,4.869,10.854,10.854s-4.869,10.854-10.854,10.854h-66.21c-2.761,0-5,2.238-5,5s2.239,5,5,5h66.21
	c11.499,0,20.854-9.355,20.854-20.854S398.698,388.176,387.199,388.176z M447.567,115.291h-5.461c-2.761,0-5,2.238-5,5s2.239,5,5,5
	h5.461c2.761,0,5-2.238,5-5S450.329,115.291,447.567,115.291z"/>
</svg>
