<?xml version="1.0" encoding="UTF-8"?>
<!DOCTYPE svg PUBLIC "-//W3C//DTD SVG 1.1//EN" "http://www.w3.org/Graphics/SVG/1.1/DTD/svg11.dtd">
<!-- Creator: CorelDRAW -->
<svg xmlns="http://www.w3.org/2000/svg" xml:space="preserve" width="2048px" height="2048px" style="shape-rendering:geometricPrecision; text-rendering:geometricPrecision; image-rendering:optimizeQuality; fill-rule:evenodd; clip-rule:evenodd"
viewBox="0 0 2048 2048"
 xmlns:xlink="http://www.w3.org/1999/xlink">
 <defs>
  <style type="text/css">
   <![CDATA[
    .fil2 {fill:none}
    .fil11 {fill:#212121}
    .fil6 {fill:#414141}
    .fil4 {fill:#B6B6B6}
    .fil3 {fill:#BDBDBD}
    .fil9 {fill:#C2A88F}
    .fil8 {fill:#C7AD95}
    .fil7 {fill:#CFB76E}
    .fil12 {fill:#D4A95B}
    .fil5 {fill:#DAC27C}
    .fil10 {fill:#DCB165}
    .fil1 {fill:#E53935}
    .fil0 {fill:#EF5350}
   ]]>
  </style>
   <clipPath id="id0">
    <path d="M1024 -0.0011811c565.541,0 1024,458.461 1024,1024 0,565.541 -458.461,1024 -1024,1024 -565.541,0 -1024,-458.461 -1024,-1024 0,-565.541 458.461,-1024 1024,-1024z"/>
   </clipPath>
 </defs>
 <g id="Layer_x0020_1">
  <metadata id="CorelCorpID_0Corel-Layer"/>
  <path class="fil0" d="M1024 -0.0011811c565.541,0 1024,458.461 1024,1024 0,565.541 -458.461,1024 -1024,1024 -565.541,0 -1024,-458.461 -1024,-1024 0,-565.541 458.461,-1024 1024,-1024z"/>
  <g style="clip-path:url(#id0)">
   <g id="_464381592">
    <g>
     <polygon id="_4664130641" class="fil1" points="1303.87,592.712 2439.75,1728.59 2445.63,1735.57 2451.32,1742.68 2456.83,1749.91 2462.15,1757.26 2467.28,1764.73 2472.23,1772.3 2476.97,1779.99 2481.53,1787.78 2485.89,1795.68 2490.06,1803.67 2494.02,1811.75 2497.78,1819.93 2501.35,1828.2 2504.71,1836.55 2507.86,1844.98 2510.81,1853.49 2513.55,1862.08 2516.08,1870.73 2518.4,1879.46 2520.5,1888.24 2522.39,1897.09 2524.06,1905.99 2525.52,1914.94 2526.76,1923.95 2527.77,1933 2528.56,1942.09 2529.13,1951.22 2529.47,1960.39 2529.59,1969.59 2529.59,1979.84 1393.71,843.962 1393.71,833.707 1393.59,824.507 1393.25,815.339 1392.68,806.207 1391.89,797.115 1390.88,788.064 1389.64,779.059 1388.18,770.105 1386.51,761.203 1384.62,752.358 1382.51,743.573 1380.2,734.852 1377.67,726.197 1374.93,717.612 1371.98,709.103 1368.83,700.671 1365.47,692.319 1361.9,684.051 1358.14,675.872 1354.17,667.785 1350.01,659.793 1345.65,651.898 1341.09,644.106 1336.34,636.42 1331.4,628.843 1326.27,621.377 1320.95,614.028 1315.44,606.799 1309.74,599.692 "/>
     <polygon id="_466405816" class="fil1" points="1393.71,843.962 2529.59,1979.84 2529.59,1980.46 1393.71,844.577 "/>
     <polygon id="_464386728" class="fil1" points="1470.72,864.01 2606.6,1999.89 2607.54,2000.96 2608.46,2002.04 2609.35,2003.15 2610.22,2004.28 2611.06,2005.43 2611.87,2006.6 2612.66,2007.79 2613.42,2009 2614.15,2010.23 2614.85,2011.48 2615.52,2012.75 2616.16,2014.04 2616.77,2015.34 2617.34,2016.66 2617.89,2017.99 2618.41,2019.35 2618.89,2020.71 2619.34,2022.09 2619.76,2023.49 2620.14,2024.9 2620.49,2026.33 2620.8,2027.76 2621.08,2029.21 2621.33,2030.67 2621.53,2032.15 2621.7,2033.63 2621.84,2035.13 2621.93,2036.63 2621.99,2038.15 2622.01,2039.67 1486.13,903.788 1486.11,902.264 1486.05,900.75 1485.96,899.244 1485.82,897.748 1485.65,896.265 1485.45,894.791 1485.2,893.33 1484.92,891.881 1484.61,890.443 1484.26,889.019 1483.88,887.609 1483.46,886.212 1483.01,884.831 1482.53,883.463 1482.01,882.112 1481.46,880.776 1480.88,879.457 1480.27,878.154 1479.63,876.869 1478.96,875.601 1478.26,874.352 1477.54,873.122 1476.78,871.911 1475.99,870.719 1475.18,869.548 1474.34,868.397 1473.47,867.268 1472.58,866.16 1471.66,865.073 "/>
     <polygon id="_464385360" class="fil1" points="1486.13,903.788 2622.01,2039.67 2622.01,2660.67 1486.13,1524.79 "/>
     <polygon id="_464381640" class="fil1" points="1486.13,1524.79 2622.01,2660.67 2621.99,2662.2 2621.93,2663.71 2621.84,2665.22 2621.7,2666.71 2621.53,2668.19 2621.33,2669.67 2621.08,2671.13 2620.8,2672.58 2620.49,2674.02 2620.14,2675.44 2619.76,2676.85 2619.34,2678.25 2618.89,2679.63 2618.41,2681 2617.89,2682.35 2617.34,2683.68 2616.77,2685 2616.16,2686.31 2615.52,2687.59 2614.85,2688.86 2614.15,2690.11 2613.42,2691.34 2612.66,2692.55 2611.87,2693.74 2611.06,2694.91 2610.22,2696.06 2609.35,2697.19 2608.46,2698.3 2607.54,2699.39 2606.6,2700.45 2605.63,2701.49 2604.64,2702.51 1468.76,1566.62 1469.75,1565.61 1470.72,1564.57 1471.66,1563.5 1472.58,1562.42 1473.47,1561.31 1474.34,1560.18 1475.18,1559.03 1475.99,1557.86 1476.78,1556.67 1477.54,1555.46 1478.26,1554.23 1478.96,1552.98 1479.63,1551.71 1480.27,1550.42 1480.88,1549.12 1481.46,1547.8 1482.01,1546.47 1482.53,1545.11 1483.01,1543.75 1483.46,1542.36 1483.88,1540.97 1484.26,1539.56 1484.61,1538.13 1484.92,1536.7 1485.2,1535.25 1485.45,1533.79 1485.65,1532.31 1485.82,1530.83 1485.96,1529.33 1486.05,1527.83 1486.11,1526.31 "/>
     <polygon id="_464385144" class="fil1" points="1468.76,1566.62 2604.64,2702.51 2603.62,2703.5 2602.58,2704.47 2601.52,2705.41 2600.43,2706.33 2599.32,2707.22 2598.19,2708.09 2597.04,2708.93 2595.87,2709.74 2594.68,2710.53 2593.47,2711.29 2592.24,2712.02 2590.99,2712.72 2589.72,2713.39 2588.44,2714.03 2587.13,2714.64 2585.81,2715.21 2584.48,2715.76 2583.13,2716.28 2581.76,2716.76 2580.38,2717.21 2578.98,2717.63 2577.57,2718.01 2576.15,2718.36 2574.71,2718.68 2573.26,2718.95 2571.8,2719.2 2570.33,2719.41 2568.84,2719.58 2567.35,2719.71 2565.84,2719.81 2564.33,2719.86 2562.8,2719.88 1426.92,1584 1428.44,1583.98 1429.96,1583.92 1431.46,1583.83 1432.96,1583.69 1434.44,1583.52 1435.92,1583.31 1437.38,1583.07 1438.83,1582.79 1440.27,1582.48 1441.69,1582.13 1443.1,1581.75 1444.5,1581.33 1445.88,1580.88 1447.24,1580.4 1448.6,1579.88 1449.93,1579.33 1451.25,1578.75 1452.55,1578.14 1453.84,1577.5 1455.11,1576.83 1456.36,1576.13 1457.59,1575.41 1458.8,1574.65 1459.99,1573.86 1461.16,1573.05 1462.31,1572.21 1463.44,1571.34 1464.55,1570.45 1465.63,1569.53 1466.7,1568.59 1467.74,1567.62 "/>
     <polygon id="_464387064" class="fil1" points="1426.92,1584 2562.8,2719.88 2561.72,2719.88 1425.84,1584 "/>
     <polygon id="_464388336" class="fil1" points="1425.84,1584 2561.72,2719.88 2159.88,2719.88 1024,1584 "/>
     <polygon id="_464377248" class="fil1" points="1024,1584 2159.88,2719.88 1758.04,2719.88 622.157,1584 "/>
     <polygon id="_464380008" class="fil1" points="622.157,1584 1758.04,2719.88 1756.96,2719.88 621.081,1584 "/>
     <polygon id="_464378016" class="fil1" points="621.081,1584 1756.96,2719.88 1755.44,2719.86 1753.92,2719.81 1752.42,2719.71 1750.92,2719.58 1749.44,2719.41 1747.96,2719.2 1746.5,2718.95 1745.05,2718.68 1743.62,2718.36 1742.19,2718.01 1740.78,2717.63 1739.38,2717.21 1738,2716.76 1736.64,2716.28 1735.28,2715.76 1733.95,2715.21 1732.63,2714.64 1731.33,2714.03 1730.04,2713.39 1728.77,2712.72 1727.52,2712.02 1726.29,2711.29 1725.08,2710.53 1723.89,2709.74 1722.72,2708.93 1721.57,2708.09 1720.44,2707.22 1719.33,2706.33 583.451,1570.45 584.559,1571.34 585.689,1572.21 586.839,1573.05 588.01,1573.86 589.202,1574.65 590.413,1575.41 591.643,1576.13 592.893,1576.83 594.16,1577.5 595.445,1578.14 596.748,1578.75 598.067,1579.33 599.403,1579.88 600.754,1580.4 602.122,1580.88 603.504,1581.33 604.9,1581.75 606.31,1582.13 607.734,1582.48 609.172,1582.79 610.621,1583.07 612.083,1583.31 613.556,1583.52 615.041,1583.69 616.536,1583.83 618.042,1583.92 619.556,1583.98 "/>
    </g>
    <path id="_464379144" class="fil1" d="M1024 463.999c98.2891,0 191.7,39.1229 261.143,108.566 69.443,69.443 108.566,162.854 108.566,261.142l0 10.2555 0 0.615355 32.1355 0 1.07599 0c16.3075,0 31.1162,6.65434 41.8359,17.3752 10.7209,10.7209 17.3752,25.5295 17.3752,41.8359l0 621c0,16.3063 -6.65434,31.115 -17.3752,41.8359 -10.7197,10.7209 -25.5284,17.3752 -41.8359,17.3752l-1.07599 0 -401.842 0 -401.844 0 -1.07599 0c-16.3075,0 -31.1173,-6.65434 -41.8359,-17.3752 -10.7209,-10.7209 -17.3752,-25.5295 -17.3752,-41.8359l0 -621c0,-16.3063 6.65434,-31.115 17.3752,-41.8359 10.5413,-10.5437 25.0394,-17.1543 41.028,-17.3693 0.269292,-0.00354331 0.538583,-0.00590552 0.807875,-0.00590552l1.07599 0 32.1355 0.00590552 0 -0.62126 0 -10.2555c0,-98.2891 39.1229,-191.699 108.566,-261.142 69.443,-69.443 162.852,-108.566 261.141,-108.566z"/>
   </g>
  </g>
  <path class="fil2" d="M1024 -0.0011811c565.541,0 1024,458.461 1024,1024 0,565.541 -458.461,1024 -1024,1024 -565.541,0 -1024,-458.461 -1024,-1024 0,-565.541 458.461,-1024 1024,-1024z"/>
  <path class="fil3" d="M654.292 859.306l0 -0.827953 0 -24.7713c0,-98.2891 39.1229,-191.699 108.566,-261.142 69.443,-69.443 162.852,-108.566 261.141,-108.566 98.2891,0 191.7,39.1229 261.143,108.566 69.443,69.443 108.566,162.854 108.566,261.142l0 25.5744 0 0.0248032 -86.9918 0 0 -0.119291 0 -25.4799c0,-75.1855 -29.974,-146.525 -83.0823,-199.632 -53.1095,-53.1095 -124.449,-83.0835 -199.635,-83.0835 -75.1855,0 -146.524,29.974 -199.632,83.0835 -53.1083,53.1071 -83.0823,124.448 -83.0823,199.632l0 24.8658 0 0.733465 -86.9918 0z"/>
  <path class="fil4" d="M1340.52 859.306l-33.802 0 0 -0.119291 0 -25.4799c0,-75.1855 -29.974,-146.525 -83.0823,-199.632 -53.1095,-53.1095 -124.449,-83.0835 -199.635,-83.0835 -75.1855,0 -146.524,29.974 -199.632,83.0835 -53.1083,53.1071 -83.0823,124.448 -83.0823,199.632l0 24.8658 0 0.733465 -33.802 0 0 -13.1244c0,-86.0032 33.4937,-167.736 92.9469,-228.496 59.452,-60.7619 139.422,-94.9938 223.57,-94.9938 84.1489,0 164.12,34.2319 223.572,94.9938 59.4532,60.7607 92.9469,142.494 92.9469,228.496l0 13.1244z"/>
  <path class="fil5" d="M621.081 844.577l33.2114 0 0 -0.615355 86.9918 0 0 0.615355 565.432 0 0 -0.615355 86.9918 0 0 0.615355 33.2114 0c16.3075,0 31.1162,6.65434 41.8359,17.3752 10.7209,10.7209 17.3752,25.5295 17.3752,41.8359l0 621c0,16.3063 -6.65434,31.115 -17.3752,41.8359 -10.7197,10.7209 -25.5284,17.3752 -41.8359,17.3752l-805.838 0c-16.3075,0 -31.1173,-6.65434 -41.8359,-17.3752 -10.7209,-10.7209 -17.3752,-25.5295 -17.3752,-41.8359l0 -621c0,-16.3063 6.65434,-31.115 17.3752,-41.8359 10.7185,-10.7209 25.5284,-17.3752 41.8359,-17.3752z"/>
  <path class="fil6" d="M1024 1032.06c23.0988,0 44.0138,9.36497 59.1532,24.5043 15.1406,15.1406 24.5055,36.0555 24.5055,59.1544 0,12.026 -2.61614,23.5642 -7.31693,34.0784 -3.45591,7.72678 -8.05867,14.8382 -13.5945,21.1205l0 143.498 0 20.9162 -0.790158 0c-0.954331,33.6095 -28.4965,60.5623 -62.3374,60.5623 -33.841,0 -61.3831,-26.9528 -62.3374,-60.5623l-0.0283465 0 0 -1.80354 0 -19.1126 0 -143.497c-5.53583,-6.28347 -10.1398,-13.3949 -13.5957,-21.1217 -4.70079,-10.513 -7.31693,-22.0524 -7.31693,-34.0784 0,-23.0988 9.36497,-44.0138 24.5055,-59.1544 15.1394,-15.1394 36.0544,-24.5043 59.1532,-24.5043z"/>
  <path class="fil7" d="M621.081 844.577l1.07599 0 0 739.423 -1.07599 0c-16.3075,0 -31.1173,-6.65434 -41.8359,-17.3752 -10.7209,-10.7209 -17.3752,-25.5295 -17.3752,-41.8359l0 -621c0,-16.3063 6.65434,-31.115 17.3752,-41.8359 10.7185,-10.7209 25.5284,-17.3752 41.8359,-17.3752z"/>
  <path class="fil7" d="M1425.84 844.577l1.07599 0c16.3075,0 31.1162,6.65434 41.8359,17.3752 10.7209,10.7209 17.3752,25.5295 17.3752,41.8359l0 621c0,16.3063 -6.65434,31.115 -17.3752,41.8359 -10.7197,10.7209 -25.5284,17.3752 -41.8359,17.3752l-1.07599 0 0 -739.423z"/>
  <polygon class="fil8" points="654.292,859.306 654.292,858.478 654.292,844.583 741.284,844.583 741.284,858.572 741.284,859.306 "/>
  <path class="fil9" d="M741.284 844.583l0 13.989 0 0.733465 -33.802 0 0 -13.1244c0,-0.533859 0.00708662,-1.06536 0.00944883,-1.59803l33.7925 0z"/>
  <path class="fil10" d="M1024 1584l-402.92 0c-16.3075,0 -31.1173,-6.65434 -41.8359,-17.3752 -10.7209,-10.7209 -17.3752,-25.5295 -17.3752,-41.8359l0 -621c0,-16.3063 6.65434,-31.115 17.3752,-41.8359 10.5413,-10.5425 25.0406,-17.1532 41.028,-17.3693l403.728 0 0 739.417z"/>
  <path class="fil11" d="M1024 1032.06l0.0011811 0 0 363.829 -0.381496 0.00472441c-33.841,0 -61.3831,-26.9528 -62.3374,-60.5623l-0.0283465 0 0 -1.80354 0 -19.1126 0 -143.497c-5.53583,-6.28347 -10.1398,-13.3949 -13.5957,-21.1217 -4.70079,-10.513 -7.31693,-22.0524 -7.31693,-34.0784 0,-23.0988 9.36497,-44.0138 24.5055,-59.1544 15.1394,-15.1394 36.0544,-24.5043 59.1532,-24.5043z"/>
  <path class="fil12" d="M622.157 844.583l0 739.417 -1.07599 0c-16.3075,0 -31.1173,-6.65434 -41.8359,-17.3752 -10.7209,-10.7209 -17.3752,-25.5295 -17.3752,-41.8359l0 -621c0,-16.3063 6.65434,-31.115 17.3752,-41.8359 10.5413,-10.5425 25.0406,-17.1532 41.028,-17.3693l1.88386 0z"/>
 </g>
</svg>
