<?xml version="1.0" encoding="UTF-8"?>
<!DOCTYPE svg PUBLIC "-//W3C//DTD SVG 1.1//EN" "http://www.w3.org/Graphics/SVG/1.1/DTD/svg11.dtd">
<!-- Creator: CorelDRAW -->
<svg xmlns="http://www.w3.org/2000/svg" xml:space="preserve" width="2048px" height="2048px" style="shape-rendering:geometricPrecision; text-rendering:geometricPrecision; image-rendering:optimizeQuality; fill-rule:evenodd; clip-rule:evenodd"
viewBox="0 0 2048 2048"
 xmlns:xlink="http://www.w3.org/1999/xlink">
 <defs>
  <style type="text/css">
   <![CDATA[
    .fil2 {fill:none}
    .fil11 {fill:#0091EA}
    .fil14 {fill:#00B0FF}
    .fil16 {fill:#037AB9}
    .fil19 {fill:#0391C8}
    .fil9 {fill:#212121}
    .fil8 {fill:#3C3C3C}
    .fil17 {fill:#417631}
    .fil12 {fill:#558B2F}
    .fil1 {fill:#5E35B1}
    .fil0 {fill:#7E57C2}
    .fil18 {fill:#90A433}
    .fil15 {fill:#B66E1F}
    .fil13 {fill:#C0CA33}
    .fil3 {fill:#E0E0E0}
    .fil5 {fill:#E6B575}
    .fil10 {fill:#F57F17}
    .fil20 {fill:#004D40;fill-rule:nonzero}
    .fil7 {fill:#212121;fill-rule:nonzero}
    .fil4 {fill:#424242;fill-rule:nonzero}
    .fil6 {fill:#FFC982;fill-rule:nonzero}
   ]]>
  </style>
   <clipPath id="id0">
    <path d="M1024 -0.0011811c565.541,0 1024,458.461 1024,1024 0,565.541 -458.461,1024 -1024,1024 -565.541,0 -1024,-458.461 -1024,-1024 0,-565.541 458.461,-1024 1024,-1024z"/>
   </clipPath>
 </defs>
 <g id="Layer_x0020_1">
  <metadata id="CorelCorpID_0Corel-Layer"/>
  <path class="fil0" d="M1024 -0.0011811c565.541,0 1024,458.461 1024,1024 0,565.541 -458.461,1024 -1024,1024 -565.541,0 -1024,-458.461 -1024,-1024 0,-565.541 458.461,-1024 1024,-1024z"/>
  <g style="clip-path:url(#id0)">
   <g id="_466416376">
    <g>
     <polygon id="_4625734961" class="fil1" points="1584,464 2719.88,1599.88 2719.88,1823.88 1584,688 "/>
     <polygon id="_462573376" class="fil1" points="1584,688 2719.88,1823.88 2719.88,2047.88 1584,912.001 "/>
     <polygon id="_462582808" class="fil1" points="1584,912.001 2719.88,2047.88 2719.88,2271.88 1584,1136 "/>
     <polygon id="_462582880" class="fil1" points="1584,1136 2719.88,2271.88 2719.88,2495.88 1584,1360 "/>
     <polygon id="_462584680" class="fil1" points="1584,1360 2719.88,2495.88 2719.88,2719.88 1584,1584 "/>
     <polygon id="_462585928" class="fil1" points="1584,1584 2719.88,2719.88 2498.21,2719.88 1362.33,1584 "/>
     <polygon id="_462581152" class="fil1" points="1362.33,1584 2498.21,2719.88 2463.21,2719.88 1327.33,1584 "/>
     <polygon id="_462581944" class="fil1" points="1327.33,1584 2463.21,2719.88 1669.06,2719.88 1665.51,2719.79 1662.01,2719.52 1658.56,2719.08 1655.16,2718.47 1651.82,2717.7 1648.54,2716.76 1645.33,2715.67 1642.2,2714.43 1639.14,2713.04 1636.15,2711.5 1633.26,2709.83 1630.45,2708.03 1627.74,2706.09 1625.12,2704.04 489.238,1568.15 491.854,1570.21 494.568,1572.15 497.376,1573.95 500.272,1575.62 503.254,1577.15 506.315,1578.54 509.454,1579.79 512.664,1580.88 515.94,1581.81 519.279,1582.59 522.677,1583.2 526.13,1583.64 529.63,1583.91 533.176,1584 "/>
    </g>
    <path id="_466416424" class="fil1" d="M533.176 463.999l794.154 0 34.9996 0 221.671 0.0011811 0 224 0 224.001 0 224 0 224 0 224.001 -221.671 0 -34.9985 0 -794.155 0c-38.0481,0 -69.1772,-31.1292 -69.1772,-69.1784l0 -981.646c0,-38.0492 31.1292,-69.1784 69.1772,-69.1784z"/>
   </g>
  </g>
  <path class="fil2" d="M1024 -0.0011811c565.541,0 1024,458.461 1024,1024 0,565.541 -458.461,1024 -1024,1024 -565.541,0 -1024,-458.461 -1024,-1024 0,-565.541 458.461,-1024 1024,-1024z"/>
  <path class="fil3" d="M533.176 463.999l794.155 0 0 1120 -794.155 0c-38.0481,0 -69.1772,-31.1292 -69.1772,-69.1784l0 -981.646c0,-38.0492 31.1292,-69.1784 69.1772,-69.1784z"/>
  <path class="fil4" d="M895.665 1006.6c64.1788,0 122.516,26.2453 164.799,68.53 42.2847,42.2847 68.5312,100.621 68.5312,164.799l0 41.4343c0,14.7036 -6.00591,28.0607 -15.6815,37.7351 -9.67442,9.6756 -23.0327,15.6815 -37.7339,15.6815l-359.829 0c-14.7036,0 -28.0607,-6.00591 -37.7351,-15.6815 -9.6756,-9.67442 -15.6815,-23.0315 -15.6815,-37.7351l0 -41.4343c0,-64.1788 26.2465,-122.515 68.5312,-164.799 42.2847,-42.2847 100.621,-68.53 164.799,-68.53z"/>
  <polygon class="fil5" points="835.179,957.844 956.152,957.844 956.152,1059.35 835.179,1059.35 "/>
  <path class="fil6" d="M895.665 713.217c34.5319,0 66.1087,6.52323 89.6162,24.7725 24.0402,18.6638 38.9103,48.6296 38.9103,94.8627 0,44.6244 -13.9618,85.1953 -36.5327,114.711 -23.3292,30.5067 -55.8378,49.3772 -91.9938,49.3772 -36.1559,0 -68.6646,-18.8705 -91.9938,-49.3772 -22.5709,-29.517 -36.5327,-70.0867 -36.5327,-114.711 0,-46.2343 14.8701,-76.1989 38.9103,-94.8627 23.5075,-18.2492 55.0843,-24.7725 89.6162,-24.7725z"/>
  <path class="fil7" d="M895.665 713.217c34.5319,0 66.1087,6.52323 89.6162,24.7736 23.5099,18.2504 38.2465,47.3115 38.8855,91.8225 -20.1662,14.5299 -44.2701,22.9866 -70.1705,22.9866 -36.9839,0 -70.3075,-17.2335 -93.7265,-44.7981 -22.1303,19.9654 -50.4307,31.9512 -81.2729,31.9512 -3.96496,0 -7.88623,-0.207874 -11.7591,-0.595276 -0.0649607,-2.15906 -0.0992127,-4.32756 -0.0992127,-6.50552 0,-46.2331 14.8701,-76.1989 38.9103,-94.8615 23.5075,-18.2504 55.0855,-24.7736 89.6162,-24.7736z"/>
  <polygon class="fil8" points="881.676,1048.6 895.665,1059.35 909.653,1048.6 909.653,1334.78 881.676,1334.78 "/>
  <polygon class="fil9" points="834.892,984.62 895.665,1059.35 844.965,1139.09 815.912,1023.85 "/>
  <polygon class="fil9" points="956.439,984.62 895.665,1059.35 946.365,1139.09 975.418,1023.85 "/>
  <rect class="fil10" x="1327.33" y="464" width="256.671" height="224"/>
  <rect class="fil11" x="1327.33" y="1136" width="256.671" height="224"/>
  <rect class="fil12" x="1327.33" y="912" width="256.671" height="224"/>
  <rect class="fil13" x="1327.33" y="687.999" width="256.671" height="224"/>
  <rect class="fil14" x="1327.33" y="1360" width="256.671" height="224"/>
  <polygon class="fil15" points="1362.33,464 1327.33,464 1327.33,688 1362.33,688 "/>
  <polygon class="fil16" points="1362.33,1136 1327.33,1136 1327.33,1360 1362.33,1360 "/>
  <polygon class="fil17" points="1362.33,912 1327.33,912 1327.33,1136 1362.33,1136 "/>
  <polygon class="fil18" points="1362.33,688 1327.33,688 1327.33,912 1362.33,912 "/>
  <polygon class="fil19" points="1362.33,1360 1327.33,1360 1327.33,1584 1362.33,1584 "/>
  <path class="fil20" d="M1493.91 611.07l-16.7528 0 -6.65552 -17.3209 -30.4736 0 -6.28347 17.3209 -16.3276 0 29.6918 -76.2272 16.2756 0 30.5256 76.2272zm-28.3429 -30.1536l-10.5059 -28.2898 -10.2945 28.2898 20.8004 0z"/>
  <path class="fil20" d="M1423.74 758.842l30.4736 0c6.03426,0 10.5413,0.248032 13.5059,0.764174 2.96339,0.496063 5.60906,1.5437 7.95119,3.14055 2.34213,1.59685 4.27677,3.70866 5.83937,6.37205 1.56142,2.64331 2.34213,5.62559 2.34213,8.90906 0,3.56693 -0.959056,6.85158 -2.87481,9.83268 -1.93465,2.9811 -4.5437,5.21693 -7.82717,6.70867 4.63229,1.34882 8.21694,3.6567 10.702,6.90355 2.50276,3.26575 3.7441,7.09961 3.7441,11.5016 0,3.46063 -0.798426,6.83268 -2.41299,10.1161 -1.61575,3.26457 -3.81614,5.89134 -6.60237,7.84371 -2.78622,1.95236 -6.22914,3.16063 -10.3287,3.62126 -2.55591,0.265748 -8.75079,0.444095 -18.5646,0.514961l-25.9477 0 0 -76.2284zm15.4051 12.6898l0 17.6244 10.0807 0c5.99882,0 9.72639,-0.0885827 11.1815,-0.266929 2.62677,-0.301181 4.70315,-1.20591 6.21142,-2.71536 1.50945,-1.50827 2.25473,-3.49607 2.25473,-5.96221 0,-2.36103 -0.638977,-4.27796 -1.93465,-5.75079 -1.31339,-1.47402 -3.24803,-2.36103 -5.80394,-2.66339 -1.52599,-0.177165 -5.91024,-0.265748 -13.1516,-0.265748l-8.8382 0zm0 30.3142l0 20.3752 14.2335 0c5.55591,0 9.06969,-0.142913 10.5602,-0.461811 2.28898,-0.408662 4.15276,-1.4374 5.59134,-3.03544 1.4374,-1.61457 2.16496,-3.77953 2.16496,-6.47835 0,-2.28898 -0.568111,-4.22363 -1.66772,-5.82048 -1.11969,-1.59803 -2.71536,-2.76851 -4.81063,-3.49607 -2.0941,-0.728741 -6.65552,-1.08307 -13.6488,-1.08307l-12.4228 0z"/>
  <path class="fil20" d="M1473.95 1031.05l14.9079 4.72087c-2.28898,8.32442 -6.08741,14.5004 -11.4118,18.5469 -5.3067,4.02874 -12.0685,6.05197 -20.25,6.05197 -10.1161,0 -18.4406,-3.46063 -24.9543,-10.3654 -6.5126,-6.92127 -9.77835,-16.3807 -9.77835,-28.3607 0,-12.6898 3.28229,-22.5402 9.83268,-29.5677 6.54804,-7.01103 15.1559,-10.526 25.8402,-10.526 9.31772,0 16.8969,2.75079 22.7173,8.27127 3.47835,3.24803 6.06969,7.93347 7.80945,14.0398l-15.2457 3.6378c-0.887009,-3.95788 -2.76851,-7.0819 -5.64331,-9.37205 -2.85827,-2.28898 -6.33662,-3.42402 -10.4185,-3.42402 -5.64331,0 -10.2413,2.02205 -13.7551,6.08623 -3.51378,4.04764 -5.27126,10.6146 -5.27126,19.7008 0,9.63662 1.72205,16.5059 5.2004,20.5878 3.46063,4.09961 7.9689,6.14056 13.5059,6.14056 4.10079,0 7.61457,-1.29567 10.5602,-3.90473 2.94685,-2.59134 5.05867,-6.68977 6.35434,-12.2634z"/>
  <path class="fil20" d="M1423.72 1206.84l28.1303 0c6.33662,0 11.1626,0.479528 14.4992,1.45512 4.47402,1.31339 8.3067,3.6567 11.4839,7.02875 3.1937,3.35433 5.62559,7.47166 7.29449,12.3343 1.65,4.8815 2.48504,10.8803 2.48504,18.0331 0,6.26457 -0.78189,11.6776 -2.34331,16.2213 -1.89921,5.53701 -4.61457,10.0276 -8.16379,13.4528 -2.66221,2.60906 -6.26575,4.63229 -10.8095,6.08741 -3.38977,1.08307 -7.93229,1.61575 -13.6299,1.61575l-28.9465 0 0 -76.2284zm15.3874 12.9036l0 50.4744 11.4827 0c4.29567,0 7.40079,-0.230315 9.31772,-0.72756 2.48504,-0.620079 4.56142,-1.66772 6.21142,-3.15827 1.65118,-1.49173 2.98229,-3.95906 4.02874,-7.36654 1.02992,-3.4063 1.5626,-8.0752 1.5626,-13.9677 0,-5.89134 -0.532678,-10.3996 -1.5626,-13.5591 -1.04646,-3.15945 -2.50158,-5.62559 -4.36536,-7.38308 -1.8815,-1.7752 -4.26024,-2.96339 -7.13504,-3.58465 -2.14725,-0.497244 -6.35315,-0.72756 -12.6366,-0.72756l-6.90355 0z"/>
  <polygon class="fil20" points="1426.68,1507.07 1426.68,1430.84 1483.19,1430.84 1483.19,1443.75 1442.07,1443.75 1442.07,1460.64 1480.33,1460.64 1480.33,1473.47 1442.07,1473.47 1442.07,1494.22 1484.65,1494.22 1484.65,1507.07 "/>
 </g>
</svg>
