<?xml version="1.0" encoding="UTF-8"?>
<!DOCTYPE svg PUBLIC "-//W3C//DTD SVG 1.1//EN" "http://www.w3.org/Graphics/SVG/1.1/DTD/svg11.dtd">
<!-- Creator: CorelDRAW -->
<svg xmlns="http://www.w3.org/2000/svg" xml:space="preserve" width="2048px" height="2048px" style="shape-rendering:geometricPrecision; text-rendering:geometricPrecision; image-rendering:optimizeQuality; fill-rule:evenodd; clip-rule:evenodd"
viewBox="0 0 2048 2048"
 xmlns:xlink="http://www.w3.org/1999/xlink">
 <defs>
  <style type="text/css">
   <![CDATA[
    .fil2 {fill:none}
    .fil1 {fill:#00ACC1}
    .fil0 {fill:#4DD0E1}
    .fil7 {fill:#E65100}
    .fil6 {fill:#F57C00}
    .fil5 {fill:#FB8C00}
    .fil3 {fill:#FB8C00;fill-rule:nonzero}
    .fil4 {fill:#FFA726;fill-rule:nonzero}
   ]]>
  </style>
   <clipPath id="id0">
    <path d="M1024 -0.0011811c565.539,0 1024,458.462 1024,1024 0,565.539 -458.462,1024 -1024,1024 -565.539,0 -1024,-458.462 -1024,-1024 0,-565.539 458.462,-1024 1024,-1024z"/>
   </clipPath>
 </defs>
 <g id="Layer_x0020_1">
  <metadata id="CorelCorpID_0Corel-Layer"/>
  <path class="fil0" d="M1024 -0.0011811c565.539,0 1024,458.462 1024,1024 0,565.539 -458.462,1024 -1024,1024 -565.539,0 -1024,-458.462 -1024,-1024 0,-565.539 458.462,-1024 1024,-1024z"/>
  <g style="clip-path:url(#id0)">
   <g id="_466509008">
    <g>
     <polygon id="_4620408081" class="fil1" points="1199.56,586.825 2335.44,1722.71 2331.18,1718.55 2326.83,1714.49 2322.38,1710.53 2317.83,1706.68 2313.19,1702.94 2308.47,1699.31 2303.65,1695.79 2298.75,1692.38 2293.77,1689.09 2288.71,1685.91 2283.56,1682.85 2278.34,1679.92 2273.04,1677.1 2267.67,1674.42 2262.23,1671.86 2256.72,1669.42 2251.13,1667.12 2245.49,1664.96 2239.78,1662.92 2234.01,1661.03 2228.17,1659.27 2222.28,1657.65 2216.34,1656.18 2210.34,1654.85 2204.29,1653.67 2198.19,1652.63 2192.04,1651.75 2185.84,1651.02 2179.6,1650.44 2173.32,1650.02 2166.99,1649.77 2160.63,1649.66 1024.75,513.782 1031.11,513.883 1037.44,514.143 1043.72,514.562 1049.96,515.138 1056.15,515.868 1062.3,516.752 1068.41,517.785 1074.46,518.967 1080.46,520.296 1086.4,521.77 1092.29,523.386 1098.12,525.143 1103.9,527.04 1109.61,529.073 1115.25,531.24 1120.83,533.541 1126.35,535.973 1131.79,538.533 1137.16,541.222 1142.46,544.034 1147.68,546.97 1152.82,550.027 1157.89,553.203 1162.87,556.497 1167.77,559.906 1172.59,563.426 1177.31,567.059 1181.95,570.802 1186.49,574.652 1190.95,578.607 1195.3,582.665 "/>
     <polygon id="_462037376" class="fil1" points="1024.75,513.782 2160.63,1649.66 2159.88,1649.66 1024,513.778 "/>
     <polygon id="_462019184" class="fil1" points="1024,513.778 2159.88,1649.66 2153.49,1649.74 2147.14,1649.98 2140.83,1650.39 2134.56,1650.95 2128.34,1651.67 2122.16,1652.54 2116.04,1653.56 2109.96,1654.74 2103.93,1656.06 2097.96,1657.52 2092.04,1659.14 2086.18,1660.89 2080.39,1662.78 2074.65,1664.81 2068.98,1666.98 2063.37,1669.28 2057.84,1671.72 2052.37,1674.28 2046.98,1676.97 2041.66,1679.79 2036.41,1682.73 2031.24,1685.79 2026.16,1688.98 2021.15,1692.28 2016.24,1695.7 2011.4,1699.23 2006.66,1702.87 2002,1706.63 1997.44,1710.49 1992.97,1714.46 1988.59,1718.53 1984.32,1722.71 848.437,586.825 852.713,582.65 857.086,578.578 861.556,574.609 866.118,570.746 870.774,566.992 875.52,563.347 880.354,559.816 885.274,556.398 890.278,553.095 895.364,549.911 900.53,546.847 905.774,543.906 911.095,541.088 916.489,538.396 921.956,535.833 927.493,533.399 933.098,531.098 938.769,528.931 944.505,526.9 950.303,525.006 956.16,523.254 962.076,521.641 968.049,520.174 974.075,518.853 980.154,517.68 986.283,516.657 992.46,515.785 998.683,515.067 1004.95,514.506 1011.26,514.102 1017.61,513.859 "/>
     <polygon id="_462021032" class="fil1" points="1024.05,1584 2159.93,2719.88 2159.88,2719.88 1024,1584 "/>
     <polygon id="_462043568" class="fil1" points="1024,1584 2159.88,2719.88 1705.23,2719.88 1703.28,2719.79 1701.4,2719.53 1699.61,2719.1 1697.91,2718.52 1696.31,2717.78 1694.8,2716.89 1693.41,2715.87 557.533,1579.99 558.923,1581.01 560.424,1581.9 562.029,1582.63 563.73,1583.22 565.522,1583.65 567.395,1583.91 569.345,1584 "/>
     <polygon id="_462038672" class="fil1" points="1207.81,595.473 2343.69,1731.36 2339.62,1726.98 2335.44,1722.71 1199.56,586.825 1203.74,591.101 "/>
     <polygon id="_462028616" class="fil1" points="1249.41,567.37 2385.29,1703.25 2389.93,1708.73 2394.43,1714.31 2398.8,1720.01 2403.04,1725.81 2407.14,1731.71 2411.1,1737.72 2414.92,1743.82 2418.6,1750.02 2422.13,1756.32 2425.51,1762.7 2428.74,1769.18 2431.81,1775.74 2434.73,1782.39 2437.49,1789.12 2440.09,1795.93 2442.53,1802.81 2444.8,1809.77 2446.9,1816.8 2448.84,1823.91 2450.6,1831.08 2452.18,1838.32 2453.59,1845.61 2454.82,1852.98 2455.86,1860.39 2456.72,1867.87 2457.4,1875.39 2457.88,1882.97 2458.17,1890.6 2458.27,1898.27 1322.39,762.388 1322.29,754.716 1322,747.089 1321.52,739.511 1320.84,731.984 1319.98,724.51 1318.94,717.093 1317.71,709.732 1316.3,702.433 1314.72,695.197 1312.95,688.026 1311.02,680.923 1308.92,673.89 1306.65,666.929 1304.21,660.043 1301.61,653.235 1298.85,646.506 1295.93,639.859 1292.85,633.297 1289.63,626.822 1286.25,620.436 1282.72,614.141 1279.04,607.941 1275.22,601.836 1271.26,595.831 1267.16,589.927 1262.92,584.126 1258.55,578.432 1254.05,572.846 "/>
     <polygon id="_462027416" class="fil1" points="1322.39,762.388 2458.27,1898.27 2458.27,2097.74 1322.39,961.861 "/>
     <polygon id="_462042152" class="fil1" points="848.437,586.825 1984.32,1722.71 1980.14,1726.98 1976.07,1731.36 1972.1,1735.82 1968.24,1740.39 1964.49,1745.04 1960.84,1749.79 1957.31,1754.62 1953.89,1759.54 1950.59,1764.55 1947.4,1769.63 1944.34,1774.8 1941.4,1780.04 1938.58,1785.36 1935.89,1790.76 1933.33,1796.23 1930.89,1801.76 1928.59,1807.37 1926.42,1813.04 1924.39,1818.78 1922.5,1824.57 1920.75,1830.43 1919.13,1836.35 1917.67,1842.32 1916.35,1848.35 1915.17,1854.42 1914.15,1860.55 1913.28,1866.73 1912.56,1872.95 1912,1879.22 1911.6,1885.53 1911.35,1891.88 1911.27,1898.27 775.39,762.388 775.471,755.999 775.714,749.649 776.118,743.339 776.679,737.071 777.397,730.848 778.269,724.671 779.292,718.542 780.465,712.463 781.786,706.437 783.253,700.464 784.866,694.548 786.618,688.69 788.512,682.893 790.543,677.157 792.71,671.486 795.011,665.88 797.445,660.343 800.008,654.877 802.7,649.482 805.518,644.162 808.459,638.918 811.523,633.75 814.707,628.665 818.01,623.662 821.428,618.741 824.959,613.908 828.604,609.162 832.358,604.506 836.221,599.943 840.19,595.473 844.262,591.101 "/>
     <polygon id="_462043136" class="fil1" points="775.39,762.388 1911.27,1898.27 1911.14,1900.82 1910.77,1903.29 1910.15,1905.67 1909.31,1907.96 1908.27,1910.13 1907.02,1912.19 1905.59,1914.1 1903.98,1915.87 1902.21,1917.48 1900.3,1918.91 1898.25,1920.16 1896.07,1921.2 1893.78,1922.04 1891.4,1922.65 1888.93,1923.03 1886.38,1923.16 750.5,787.277 753.045,787.149 755.516,786.772 757.901,786.159 760.188,785.321 762.364,784.274 764.416,783.027 766.332,781.594 768.1,779.988 769.706,778.219 771.139,776.304 772.386,774.252 773.434,772.075 774.271,769.789 774.884,767.404 775.261,764.933 "/>
     <polygon id="_462030008" class="fil1" points="750.5,787.277 1886.38,1923.16 1883.84,1923.03 1881.37,1922.65 1878.98,1922.04 1876.69,1921.2 1874.52,1920.16 1872.47,1918.91 1870.55,1917.48 1868.78,1915.87 732.901,779.988 734.669,781.594 736.584,783.027 738.636,784.274 740.813,785.321 743.099,786.159 745.484,786.772 747.955,787.149 "/>
     <polygon id="_462014168" class="fil1" points="1492.63,968.602 2628.51,2104.48 2629.57,2105.89 2630.51,2107.4 2631.29,2108.99 2631.92,2110.65 2632.39,2112.38 2632.67,2114.16 2632.77,2115.98 2632.77,2701.61 2632.67,2703.44 2632.39,2705.22 2631.92,2706.95 2631.29,2708.62 2630.51,2710.21 2629.58,2711.72 2628.51,2713.13 2627.32,2714.44 2626.01,2715.63 2624.6,2716.69 2623.09,2717.63 2621.51,2718.41 2619.84,2719.04 2618.12,2719.5 2616.35,2719.79 2614.53,2719.88 2159.93,2719.88 1024.05,1584 1478.65,1584 1480.46,1583.9 1482.24,1583.62 1483.96,1583.16 1485.62,1582.53 1487.21,1581.74 1488.72,1580.81 1490.13,1579.75 1491.44,1578.55 1492.63,1577.25 1493.7,1575.83 1494.63,1574.33 1495.41,1572.73 1496.04,1571.07 1496.5,1569.34 1496.79,1567.56 1496.89,1565.73 1496.89,980.102 1496.79,978.277 1496.5,976.497 1496.04,974.769 1495.41,973.106 1494.62,971.516 1493.69,970.012 "/>
    </g>
    <path id="_466490168" class="fil1" d="M1024.78 464.005c81.7713,0.212599 156.075,33.7288 209.972,87.6272 54.0709,54.0709 87.6331,128.675 87.6331,210.756l0 199.473 156.259 0c9.77481,0 18.2386,8.41418 18.2386,18.241l0 585.629c0,9.83505 -8.4567,18.2693 -18.2386,18.2693l-454.602 0 -0.046063 0 -454.655 0c-10.5886,0 -18.2315,-7.6819 -18.2315,-18.2693l0 -585.629c0,-10.5803 7.65827,-18.241 18.2315,-18.241l454.655 0 0.455906 0 248.155 0 0 -199.473c0,-68.341 -27.978,-130.491 -73.0489,-175.563 -44.9067,-44.9055 -106.765,-72.8375 -174.809,-73.043l-0.752363 -0.00472441c-68.3422,0 -130.489,27.9768 -175.563,73.0477 -45.0709,45.0721 -73.0477,107.221 -73.0477,175.563 0,13.7457 -11.1437,24.8894 -24.8894,24.8894 -13.7457,0 -24.8894,-11.1437 -24.8894,-24.8894 0,-82.0831 33.5622,-156.686 87.6331,-210.756 54.0685,-54.0697 128.673,-87.6331 210.756,-87.6331l0.784253 0.00590552z"/>
   </g>
  </g>
  <path class="fil2" d="M1024 -0.0011811c565.539,0 1024,458.462 1024,1024 0,565.539 -458.462,1024 -1024,1024 -565.539,0 -1024,-458.462 -1024,-1024 0,-565.539 458.462,-1024 1024,-1024z"/>
  <path class="fil3" d="M1024 513.778l0.752363 0.00472441c68.0445,0.205512 129.902,28.1374 174.809,73.043 45.0709,45.0721 73.0489,107.222 73.0489,175.563l0 199.473c0,13.7457 11.1437,24.8894 24.8894,24.8894 13.7457,0 24.8894,-11.1437 24.8894,-24.8894l0 -199.473c0,-82.0808 -33.5622,-156.685 -87.6331,-210.756 -53.8973,-53.8985 -128.2,-87.4146 -209.972,-87.6272l-0.784253 -0.00590552 0 49.7788z"/>
  <path class="fil4" d="M725.611 762.388c0,13.7457 11.1437,24.8894 24.8894,24.8894 13.7457,0 24.8894,-11.1437 24.8894,-24.8894 0,-68.3422 27.9768,-130.491 73.0477,-175.563 45.0733,-45.0709 107.221,-73.0477 175.563,-73.0477l0 -49.7788c-82.0831,0 -156.688,33.5634 -210.756,87.6331 -54.0709,54.0697 -87.6331,128.673 -87.6331,210.756z"/>
  <path class="fil5" d="M1024 961.861l-454.655 0c-10.5732,0 -18.2315,7.66064 -18.2315,18.241l0 585.629c0,10.5874 7.64292,18.2693 18.2315,18.2693l454.655 0 0 -145.756 0 -330.627 0 -145.755z"/>
  <path class="fil6" d="M1478.65 961.861l-454.192 0 -0.455906 0 0 145.755 0.360236 0.00236221 -0.218504 330.623 -0.141732 0.00236221 0 145.756 0.046063 0 454.602 0c9.7819,0 18.2386,-8.43426 18.2386,-18.2693l0 -585.629c0,-9.82678 -8.46379,-18.241 -18.2386,-18.241z"/>
  <path class="fil7" d="M1094.39 1136.78c-18.0177,-18.0165 -42.9059,-29.1603 -70.3938,-29.1603 -27.4878,0 -52.376,11.1437 -70.3938,29.1603 -18.0154,18.0177 -29.1591,42.9059 -29.1591,70.3938 0,27.4878 11.1437,52.376 29.1591,70.3914 12.385,12.385 28.0158,21.5209 45.5044,26.0232l0 109.769c0,13.7457 11.1437,24.8894 24.8894,24.8894 13.7457,0 24.8894,-11.1437 24.8894,-24.8894l0 -109.769c17.4886,-4.50237 33.1193,-13.6382 45.5044,-26.0232 18.0154,-18.0154 29.1591,-42.9036 29.1591,-70.3914 0,-27.4878 -11.1437,-52.376 -29.1591,-70.3938z"/>
 </g>
</svg>
