<svg xmlns="http://www.w3.org/2000/svg" viewBox="0 0 512 512"><title>Artboard 111</title><g id="Green_Manufacture" data-name="Green Manufacture"><path d="M448,170.66667c-21.33333,0-21.33333-21.33334-42.66667-21.33334H384a21.33333,21.33333,0,1,1,0-42.66666h64a42.66667,42.66667,0,1,0,0-85.33334H362.66667c-21.33334,0-21.33334,21.33334-42.66667,21.33334H298.66667A21.33272,21.33272,0,0,0,277.33333,64,21.33355,21.33355,0,0,1,256,85.33333a21.33272,21.33272,0,0,0-21.33333,21.33334A21.33355,21.33355,0,0,1,213.33333,128H170.66667a21.33334,21.33334,0,1,0,0,42.66667H192A21.33272,21.33272,0,0,1,213.33333,192a21.33355,21.33355,0,0,0,21.33334,21.33333h128A21.33272,21.33272,0,0,1,384,234.66667,21.33355,21.33355,0,0,0,405.33333,256H448a42.66667,42.66667,0,1,0,0-85.33333Z" style="fill:#30bf00"/><rect x="85.33333" y="128" width="106.66667" height="362.66667" rx="42.66667" ry="42.66667" style="fill:#e4dbff"/><rect x="106.66667" y="128" width="85.33331" height="42.66667" rx="21.33331" ry="21.33331" style="fill:#ac93ff"/><rect x="149.33333" y="170.66669" width="42.66667" height="170.66665" rx="21.33331" ry="21.33331" style="fill:#d1c2ff"/><rect x="75.41726" y="298.66667" width="180.58274" height="64" style="fill:#ec590a"/><rect x="42.66667" y="362.66667" width="213.33333" height="42.66667" rx="21.33331" ry="21.33331" style="fill:#ff9c5e"/><path d="M452.26576,243.19834,395.37956,200.534A42.67061,42.67061,0,0,0,369.77734,192H256V298.66667H42.66667V448a42.66666,42.66666,0,0,0,42.66666,42.66667H426.66667A42.66666,42.66666,0,0,0,469.33333,448V277.33333A42.66863,42.66863,0,0,0,452.26576,243.19834Z" style="fill:#ff9c5e"/><path d="M256,320H96a10.66666,10.66666,0,0,1-10.66666-10.66666v0A10.66666,10.66666,0,0,1,96,298.66667H256Z" style="fill:#d34000"/><path d="M452.26693,243.19922,395.3776,200.53255A42.66678,42.66678,0,0,0,369.77734,192H288a31.99562,31.99562,0,0,1,19.20052,6.39974l59.73307,44.79948A42.66963,42.66963,0,0,1,384,277.33333V448a42.66711,42.66711,0,0,1-42.66667,42.66667h85.33334A42.66711,42.66711,0,0,0,469.33333,448V277.33333A42.66962,42.66962,0,0,0,452.26693,243.19922Z" style="fill:#ff8132"/><rect x="384" y="256" width="85.33333" height="42.66667" rx="21.33331" ry="21.33331" style="fill:#ff690b"/><path d="M234.66667,192v0A21.33331,21.33331,0,0,0,256,213.33333h14.22225a21.33332,21.33332,0,0,1,12.8,4.26667l73.95556,55.46667a21.33331,21.33331,0,0,0,12.8,4.26666h99.55558A21.33331,21.33331,0,0,0,490.66667,256v-10.6667a21.33333,21.33333,0,0,0-8.53333-17.06665l-71.11112-53.33334a21.33331,21.33331,0,0,0-12.8-4.26666H256A21.33331,21.33331,0,0,0,234.66667,192Z" style="fill:#d34000"/><path d="M278.45133,219.49162A21.33439,21.33439,0,0,0,265.635,257.8929L331.37769,307.2a64.387,64.387,0,0,0,25.96012,11.57927,21.3333,21.3333,0,0,0,8.29354-41.85279l-.0022-.0004-.03288-.0066-.00586-.00113-.06665-.01351-.00244-.00049-.032-.00651-.01115-.00228-.095-.01978-.01465-.00309-.02816-.00594-.01269-.00277-.04948-.01058-.0188-.00406-.0249-.00546-.02141-.00464-.03971-.0087-.02059-.00464-.02474-.00545-.02108-.00472-.03214-.00725-.03011-.00683-.02173-.005-.02311-.00529-.02246-.00512-.03825-.009-.02222-.00512-.02335-.00554-.02255-.00529-.026-.0061-.0319-.00765-.02653-.00635-.01969-.0048-.02962-.00716-.02035-.005-.03613-.00888-.01945-.0048-.02922-.00724-.01554-.00382-.04281-.01075-.01489-.00374-.03206-.00814-.01538-.0039-.04411-.01123-.00822-.00212-.03792-.00985-.01416-.00366-.04086-.01066-.00488-.0013-.04582-.012-.01172-.00309-.03922-.0105-.00765-.002-.04671-.01253-.00839-.00228-.04044-.01107-.00879-.00236-.04777-.0131-.00236-.00065-.04427-.01229-.00977-.00269-.09489-.02669-.00773-.0022-.09668-.02775-.005-.00146-.04615-.01343-.00293-.00082-.05013-.01472-.00048-.00017-.04883-.01448-.00342-.001-.09985-.03-.00212-.00065a21.32935,21.32935,0,0,1-6.26245-3.09261l-.00317-.0022-.08448-.06111-.00341-.00245-.04135-.03011-.00057-.0004-.04166-.03052-.00562-.00415-.036-.02653-.00561-.00415-.04037-.02987-.00456-.00342-.035-.026-.00936-.007-.0389-.02913h0l-2.8112-2.1084-.02889-.02165-1.4663-1.09977-.012-.009-.83854-.62891-.004-.00293-.43107-.32332-.027-.02026-.20565-.15422-.01407-.01058-.10962-.08227-.00277-.002-.0481-.036-.13883-.10417-.03337-.025-.02783-.02092-.02946-.022-.032-.024-.02547-.01912-.02979-.02238-.09839-.07373-.01993-.015-.04012-.03-.09839-.07382-.08708-.06534-.01009-.00757-.10034-.07528-.03687-.02759-.16414-.12313-.09522-.07145-.01123-.00838-.02108-.01579-.059-.04427-.00553-.00415-.07-.05249-.08366-.06274-.01009-.00757-.02889-.02165-.04964-.03719-.01115-.00838-.10726-.08049-.03711-.02783-.21826-.16374C331.79484,254.17952,291.235,223.7596,291.235,223.7596a21.2413,21.2413,0,0,0-12.7837-4.268Z" style="fill:#ff8d45"/><rect x="277.33333" y="170.66667" width="42.66667" height="21.33333" rx="10.66666" ry="10.66666" style="fill:#ec590a"/><rect x="320" y="192" width="42.66667" height="21.33333" rx="10.66666" ry="10.66666" style="fill:#ec590a"/><rect x="362.66667" y="170.66667" width="42.66667" height="21.33333" rx="10.66666" ry="10.66666" style="fill:#ec590a"/><rect x="362.66667" y="213.33333" width="42.66667" height="21.33333" rx="10.66666" ry="10.66666" style="fill:#ec590a"/><rect x="64" y="362.66667" width="42.66667" height="21.33333" rx="10.66666" ry="10.66666" style="fill:#ffaf7d"/><rect x="128" y="362.66667" width="42.66667" height="21.33333" rx="10.66666" ry="10.66666" style="fill:#ffaf7d"/><rect x="234.66667" y="405.33333" width="42.66667" height="21.33333" rx="10.66666" ry="10.66666" style="fill:#ffaf7d"/><rect x="42.66667" y="405.33333" width="42.66667" height="21.33333" rx="10.66666" ry="10.66666" style="fill:#ffaf7d"/><rect x="341.33333" y="362.66667" width="42.66667" height="21.33333" rx="10.66666" ry="10.66666" style="fill:#ffaf7d"/><rect x="405.33333" y="362.66667" width="42.66667" height="21.33333" rx="10.66666" ry="10.66666" style="fill:#ff8d45"/><rect x="426.66667" y="405.33333" width="42.66667" height="21.33333" rx="10.66666" ry="10.66666" style="fill:#ff8d45"/><rect x="341.33333" y="448" width="42.66667" height="21.33333" rx="10.66666" ry="10.66666" style="fill:#ffaf7d"/><rect x="256" y="362.66667" width="42.66667" height="21.33333" rx="10.66666" ry="10.66666" style="fill:#ffaf7d"/><rect x="341.33333" y="320" width="42.66667" height="21.33333" rx="10.66666" ry="10.66666" style="fill:#ffaf7d"/><rect x="298.66667" y="256" width="42.66667" height="21.33333" rx="10.66666" ry="10.66666" style="fill:#ff9c5e"/><rect x="426.66667" y="213.33333" width="42.66667" height="21.33333" rx="10.66666" ry="10.66666" style="fill:#ec590a"/><path d="M270.22233,192H260.08252a10.66666,10.66666,0,1,0,0,21.33333h10.13981a21.3335,21.3335,0,0,1,12.8,4.26669h0l.00057.0004.00447.00334h0l.00277.00212.00008.00008.00212.00154.00016.00017.02995.02238.00521.0039.05436.04085.00211.00155.01587.01188.00489.00375.00317.00227.00383.00293.04248.03191.00309.00227.13875.104.00033.00024.0664.04989.00326.00244.02352.01758.00822.00618.0061.00456.01847.01392.015.01123.00065.0004.07007.05257.00317.00236.01978.0149.02172.01627.59611.44711.00066.00048.04394.033.01017.00765.02906.02173.02327.0175.02621.01969.00276.002.034.02547.04785.03589.02417.01815.01554.01163.09709.07284.0096.00724.04273.032.04557.03418.0079.00594.04516.03386.04671.03507.00676.00505.19848.14884.01034.00782.13468.101q.40785.30591.88607.66455l.0437.0328.24423.1831.00683.00513.02222.01668.02506.0188c.21086.1582.43205.32406.66.495l.008.00594q.18139.1361.36971.27726l.012.009.31942.23966.03085.023c12.29508,9.22135,44.47534,33.3566,44.47534,33.3566a10.66665,10.66665,0,1,0,12.8-17.06665l-49.17285-36.8798A42.93447,42.93447,0,0,0,270.22233,192Z" style="fill:#ec590a"/><path d="M469.33333,256H369.77767a10.66667,10.66667,0,1,0,0,21.33333h99.55566a10.66666,10.66666,0,1,0,0-21.33333Z" style="fill:#b22a00"/><rect x="85.33333" y="384" width="64" height="64" rx="19.95551" ry="19.95551" style="fill:#602fff"/><rect x="170.66667" y="384" width="64" height="64" rx="19.95551" ry="19.95551" style="fill:#602fff"/><path d="M309.3333,384h.00006a32,32,0,0,1,32,32v74.6667a0,0,0,0,1,0,0h-64a0,0,0,0,1,0,0V416a32,32,0,0,1,32-32Z" style="fill:#602fff"/><path d="M309.33333,384a31.99992,31.99992,0,0,0-32,32v62.79525a10.66667,10.66667,0,0,0,21.33334,0V416a10.67878,10.67878,0,0,1,10.66666-10.66667h0a10.73323,10.73323,0,0,1,2.91244.39681,10.66673,10.66673,0,0,0,5.83659-20.51945,31.89744,31.89744,0,0,0-6.13461-1.10547h-.00008l-.05021-.004-.00155-.00017-.1455-.01114-.00969-.00074-.04541-.00333-.00683-.00049-.14079-.00993-.01327-.0009-.04353-.00293-.005-.00032-.08276-.00545-.01945-.00122-.03768-.00236-.02059-.00122-.12655-.00757-.022-.00122-.03662-.00212-.02311-.00122-.05819-.00317-.0297-.00155-.0319-.00163-.03052-.00154-.03125-.00163-.03182-.00155-.04566-.00211-.03759-.00179-.02873-.00131-.0332-.00146-.03-.0013-.04216-.00179-.03825-.00155-.035-.00138-.02922-.00114-.03588-.00139-.02613-.001-.05615-.002-.02531-.00089-.03727-.00122-.026-.0009-.04118-.00122-.02157-.00073-.05859-.00171-.02132-.00057-.04232-.00114-.0223-.00057-.05542-.00138-.00789-.00016-.06014-.00139-.0214-.00049-.0446-.00089-.01856-.00041-.06128-.00106-.01529-.00032-.04851-.00073-.02091-.00033-.04728-.00065-.01612-.00024-.06225-.00074-.01547-.00016-.048-.00049-.02091-.00016-.05225-.00041-.01042-.00008-.06242-.00032-.01831-.00009-.04769-.00016h-.018L309.33333,384Z" style="fill:#3412d4"/><rect x="277.33333" y="298.66667" width="21.33333" height="64" rx="10.66666" ry="10.66666" style="fill:#602fff"/><rect x="85.33333" y="384" width="21.33333" height="64" rx="10.66666" ry="10.66666" style="fill:#3412d4"/><rect x="170.66667" y="384" width="21.33333" height="64" rx="10.66666" ry="10.66666" style="fill:#3412d4"/><rect x="320" y="298.66667" width="21.33333" height="64" rx="10.66666" ry="10.66666" style="fill:#602fff"/><rect x="405.33333" y="298.66667" width="21.33333" height="64" rx="10.66666" ry="10.66666" style="fill:#480fed"/><rect x="448" y="298.66667" width="21.33333" height="64" rx="10.66666" ry="10.66666" style="fill:#480fed"/><rect x="85.33333" y="170.66667" width="106.66667" height="42.66667" rx="21.33331" ry="21.33331" style="fill:#ec590a"/><path d="M106.66667,128v0A21.33331,21.33331,0,0,1,128,106.66667h21.33337a21.33332,21.33332,0,0,0,21.33332-21.33332v0A21.33331,21.33331,0,0,1,192,64H298.66669A21.33331,21.33331,0,0,1,320,85.33331v0a21.33331,21.33331,0,0,1-21.33331,21.33332h0A21.33331,21.33331,0,0,0,277.33333,128v0A21.33331,21.33331,0,0,1,256,149.33333H128A21.33331,21.33331,0,0,1,106.66667,128Z" style="fill:#009c13"/><rect x="362.66667" y="21.33333" width="64" height="42.66667" rx="21.33331" ry="21.33331" style="fill:#46d247"/><rect x="298.66667" y="128" width="85.33333" height="42.66667" rx="21.33331" ry="21.33331" style="fill:#46d247"/><rect x="384" y="85.33333" width="64" height="21.33333" rx="10.66666" ry="10.66666" style="fill:#0d9f00"/><rect x="21.33333" y="64" width="64" height="42.66667" rx="21.33331" ry="21.33331" style="fill:#46d247"/><path d="M256,320H202.66666A10.66665,10.66665,0,0,1,192,309.33334v0a10.66665,10.66665,0,0,1,10.66666-10.66665H256Z" style="fill:#d34000"/><rect x="234.66667" y="298.66667" width="21.33333" height="42.66667" rx="10.66666" ry="10.66666" style="fill:#d34000"/><path d="M250.10417,321.125,207.4375,299.79167c-.10417-.05209-.21745-.03907-.32292-.08724a10.61438,10.61438,0,0,0-2.04557-.55209,10.782,10.782,0,0,0-2.07292-.41927c-.11588-.0039-.21224-.0664-.32942-.0664h-64a10.66667,10.66667,0,1,0,0,21.33333h61.47916l40.41667,20.20833a10.66791,10.66791,0,1,0,9.54167-19.08333Z" style="fill:#ff690b"/><rect x="128" y="298.66667" width="42.66667" height="21.33333" rx="10.66666" ry="10.66666" style="fill:#ec590a"/><circle cx="416" cy="309.33333" r="10.66667" style="fill:#1300a0"/><circle cx="288" cy="309.33333" r="10.66667" style="fill:#3412d4"/><circle cx="330.66667" cy="309.33333" r="10.66667" style="fill:#3412d4"/><circle cx="458.66667" cy="309.33333" r="10.66667" style="fill:#1300a0"/><rect x="384" y="448" width="64" height="42.66667" rx="21.33331" ry="21.33331" style="fill:#ff690b"/><path d="M143.4375,321.125l-42.66667-21.33333c-.10416-.05209-.21744-.03907-.32291-.08724a10.6163,10.6163,0,0,0-2.03646-.55078,10.6732,10.6732,0,0,0-2.07943-.42058c-.11719-.0039-.21484-.0664-.332-.0664H32A10.66667,10.66667,0,1,0,32,320H93.47917l40.41666,20.20833A10.66791,10.66791,0,1,0,143.4375,321.125Z" style="fill:#ff8132"/><path d="M200.14591,320H141.18742l2.25,1.12492a10.66794,10.66794,0,0,1-9.54151,19.08349L93.47925,320H53.25464a10.66667,10.66667,0,1,0,0,21.33333H88.44287l35.91235,17.9563a32.27239,32.27239,0,0,0,14.301,3.377,31.84969,31.84969,0,0,0,28.62248-17.667,32.28512,32.28512,0,0,0,1.559-3.66634h26.27181l35.91235,17.9563a32.299,32.299,0,0,0,13.92977,3.37492c.04207.00049.08464.00073.12655.00073a10.66666,10.66666,0,0,0,.12158-21.3326q-.42689-.005-.8549-.04459l-.0035-.00033-.03369-.00325-.00472-.00041-.03174-.00318-.00773-.00073-.02922-.003-.009-.00089-.02742-.00293-.01132-.00122-.02555-.00277-.01286-.00147-.023-.0026-.01587-.00179-.02107-.00244-.01612-.002-.02091-.00244-.01668-.002-.02019-.00252-.01766-.0022-.01831-.00236-.01969-.00252-.017-.00228-.02034-.00269-.01587-.00211-.022-.003-.01416-.002-.02343-.00325-.01213-.00171-.02563-.00366-.01026-.00147-.02694-.004-.00911-.00138-.028-.00415-.00855-.0013-.02889-.00448-.00578-.00089-.03133-.005-.00431-.00065-.03288-.00529-.002-.00032-.03491-.00578-.00066-.00008q-.25536-.04248-.51017-.09782l-.00179-.00041-.03361-.00732-.00325-.00074-.03117-.00691-.00619-.00139-.02978-.00675-.00708-.00163-.02857-.00659-.00854-.002-.02783-.00651-.009-.00212-.02653-.00635-.01082-.0026-.02572-.00619-.011-.00268-.02515-.00611-.012-.003-.02466-.0061-.012-.003-.02425-.00611-.0131-.00333-.02311-.00594-.01408-.00367-.02222-.00577-.01473-.00383-.02189-.00578-.01538-.00407-.02059-.00553-.01692-.00456-.0197-.00537-.01741-.00472-.019-.00521-.01782-.005-.01912-.00537-.01791-.005-.01839-.0052-.01912-.00546-.01742-.005-.0201-.00578-.01611-.00472-.02149-.00627-.01513-.00447-.02328-.00692-.01286-.00382-.026-.00782-.01033-.00309-.02865-.00879-.00781-.00236-.03092-.0096-.00562-.00171-.03548-.01107-.00081-.00024q-.31482-.09924-.62671-.21883l-.00009-.00008-.07275-.02824-.00114-.00041-.03556-.01408-.0009-.00032-.03523-.014-.002-.00082-.0345-.01391-.002-.00082-.0341-.01391-.00268-.00106-.03377-.01392-.00261-.00105-.03385-.01408-.00252-.00106-.03394-.01424-.00236-.001-.034-.0144-.00228-.00106-.03483-.01489-.001-.00041-.03492-.01514-.00162-.00073-.03508-.0153-.001-.00041-.035-.01546-.00138-.00065-.03491-.01554-.00131-.00057-.03475-.01563-.00146-.00065-.03459-.0157-.00163-.00074-.03418-.0157-.002-.0009-.03434-.01595-.00171-.00081-.03475-.0162-.00122-.00057-.03565-.01684-.00024-.00008-.03516-.01677-.00089-.00049-.0341-.01635-.002-.001-.03288-.01595-.00309-.00155-.029-.01416-.00716-.0035-.03548-.01758h0l-.00049-.00024-4.28515-2.14258-.00293-.00146-.503-.25147-.006-.00309-.117-.05843-.00228-.00122-.03524-.01758-.008-.004-2.63884-1.31941-.00732-.00367-.179-.08951-.01212-.006-.17554-.08781-.01961-.00984-.12728-.06356-.017-.00855-1.0332-.5166-.00188-.001-.15006-.075-.00187-.001-.04566-.02287-.0096-.0048-.03752-.01872-.02945-.01473-.02653-.01326-.00391-.002-.04289-.02148-.01806-.009-.026-.01294-.02075-.01042-.08952-.04476-.01155-.0057-.90519-.45263-.06853-.03426-2.29451-1.1473-.0022-.00106-3.48022-1.74015-.00749-.00375-.04167-.02083-.0201-.01009-.25089-.12541-.0813-.04061-.0555-.02775-.0162-.00814-.46443-.23217-.00326-.00163-2.88729-1.44369-.0074-.00366-.3606-.18034-.0498-.0249h-.00008l-.03638-.01823-.91089-.4554-.03508-.01758-.43855-.21924-.03321-.01668-1.60294-.80143-.01172-.00586-2.97477-1.48739-.01921-.0096-.88387-.442-.03044-.01522-3.67545-1.83772-.02832-.01416-.01506-.00749-.03068-.01538-.03434-.01717-.00651-.00326-5.20044-2.60018-.00382-.002-.0271-.01351-.00961-.00488-.27767-.13884-.00382-.00187-.25952-.12972-.01921-.0096-.02726-.01367-.00334-.00171-.026-.013-.00814-.004-.026-.013-.00919-.00456-.15642-.0782-.00634-.00326-.25049-.12524-.00212-.00106-.75626-.37809-.014-.007-.16773-.08391-.00423-.00211-1.25439-.62712-.00073-.0004L200.14591,320Z" style="fill:#ff8d45"/><rect x="64" y="448" width="170.66667" height="42.66667" rx="21.33331" ry="21.33331" style="fill:#ff8d45"/><circle cx="170.66667" cy="192" r="21.33333" style="fill:#d34000"/><rect x="128" y="277.33333" width="64" height="21.33333" rx="10.66666" ry="10.66666" style="fill:#d1c2ff"/><rect x="192" y="448" width="42.66667" height="21.33333" rx="10.66666" ry="10.66666" style="fill:#ff9c5e"/><rect x="85.33333" y="448" width="42.66667" height="21.33333" rx="10.66666" ry="10.66666" style="fill:#ff9c5e"/><rect x="405.33333" y="448" width="42.66667" height="21.33333" rx="10.66666" ry="10.66666" style="fill:#ff7a27"/><rect x="234.66667" y="85.33333" width="42.66667" height="21.33333" rx="10.66666" ry="10.66666" style="fill:#30bf00"/><rect x="298.66667" y="128" width="42.66667" height="21.33333" rx="10.66666" ry="10.66666" style="fill:#a4e9ab"/><rect x="362.66667" y="21.33333" width="42.66667" height="21.33333" rx="10.66666" ry="10.66666" style="fill:#a4e9ab"/><rect x="298.66667" y="42.66667" width="42.66667" height="21.33333" rx="10.66666" ry="10.66666" style="fill:#46d247"/><rect x="128" y="128" width="128" height="21.33333" rx="10.66666" ry="10.66666" style="fill:#0e8900"/><circle cx="288" cy="96" r="10.66667" style="fill:#0e8900"/><circle cx="202.66667" cy="96" r="10.66667" style="fill:#30bf00"/><circle cx="74.66667" cy="74.66667" r="10.66667" style="fill:#a4e9ab"/></g></svg>