<?xml version="1.0" encoding="utf-8"?>
<!-- Generator: Adobe Illustrator 22.0.1, SVG Export Plug-In . SVG Version: 6.00 Build 0)  -->
<svg version="1.1" id="Layer_1" xmlns="http://www.w3.org/2000/svg" xmlns:xlink="http://www.w3.org/1999/xlink" x="0px" y="0px"
	 viewBox="0 0 256 256" style="enable-background:new 0 0 256 256;" xml:space="preserve">
<style type="text/css">
	.st0{fill:#3A312A;}
	.st1{fill:#D6DF58;}
	.st2{fill:#87796F;}
	.st3{fill:#B9C239;}
	.st4{fill:#EF6D7A;}
	.st5{fill:#FCE8CB;}
	.st6{fill:#D5DE58;}
	.st7{fill:#D34E5C;}
	.st8{fill:#695B51;}
	.st9{fill:#8AC6DD;}
	.st10{fill:#D7E057;}
	.st11{fill:#B8C136;}
	.st12{fill:#F16C7A;}
	.st13{fill:#8AC2D9;}
	.st14{fill:#F7E3C7;}
	.st15{fill:#8AC3DA;}
	.st16{fill:#6DA3BC;}
	.st17{fill:#6A5C52;}
	.st18{fill:#D5DC57;}
	.st19{fill:#F6E2C6;}
	.st20{fill:#DBC7AA;}
	.st21{fill:#CE4E61;}
	.st22{fill:#FAE6CA;}
	.st23{fill:#8AC5DC;}
	.st24{fill:#DDC9AC;}
	.st25{fill:#DECAAD;}
	.st26{fill:#6CA6BE;}
	.st27{fill:#F8E4C8;}
	.st28{fill:#89C4DB;}
	.st29{fill:#ED6E7A;}
	.st30{fill:#D24E5C;}
	.st31{fill:#6DA4BD;}
	.st32{fill:#EB6E7A;}
	.st33{fill:#68A7BB;}
	.st34{fill:#B9BC37;}
	.st35{fill:#CC4E61;}
	.st36{fill:#6CA8BF;}
	.st37{fill-rule:evenodd;clip-rule:evenodd;fill:#D5DE58;}
	.st38{fill:#EA6D7A;}
	.st39{fill:#F4E0C4;}
	.st40{fill-rule:evenodd;clip-rule:evenodd;fill:#D6DF58;}
	.st41{fill-rule:evenodd;clip-rule:evenodd;fill:#F16C7A;}
	.st42{fill:#F3DEC3;}
	.st43{fill-rule:evenodd;clip-rule:evenodd;fill:#FAE6CA;}
	.st44{fill:#F59689;}
	.st45{fill-rule:evenodd;clip-rule:evenodd;fill:#F8E4C8;}
	.st46{fill-rule:evenodd;clip-rule:evenodd;fill:#FCE8CB;}
	.st47{fill:#F5978A;}
	.st48{fill:#D4DB56;}
	.st49{fill-rule:evenodd;clip-rule:evenodd;fill:#D4DA55;}
	.st50{fill-rule:evenodd;clip-rule:evenodd;fill:#EB6E7A;}
	.st51{fill:#68A6B9;}
	.st52{fill-rule:evenodd;clip-rule:evenodd;fill:#D5DC57;}
	.st53{fill:#8AC1D8;}
	.st54{fill:#F5E1C5;}
	.st55{fill:#D4D752;}
	.st56{fill:#D3D751;}
	.st57{fill:#D4D853;}
	.st58{fill:#E96C7A;}
	.st59{fill:#D4DA55;}
	.st60{fill:#8BC0D7;}
	.st61{fill:#87796F;stroke:#3A312A;stroke-width:3;stroke-linecap:round;stroke-linejoin:round;stroke-miterlimit:10;}
</style>
<g>
	<g>
		<g>
			<path class="st4" d="M193.282,87.158H23.005c-3.169,0-5.738,2.569-5.738,5.738v14.656c0,3.169,2.569,5.737,5.738,5.737h170.278
				c3.169,0,5.738-2.569,5.738-5.737V92.896C199.02,89.727,196.451,87.158,193.282,87.158z"/>
		</g>
	</g>
	<g>
		<g>
			<path class="st0" d="M193.282,85.658H67.504c-0.828,0-1.5,0.671-1.5,1.5c0,0.829,0.672,1.5,1.5,1.5h125.778
				c2.337,0,4.238,1.901,4.238,4.238v14.656c0,2.337-1.901,4.238-4.238,4.238H23.005c-2.337,0-4.238-1.901-4.238-4.238V92.896
				c0-2.337,1.901-4.238,4.238-4.238h29.802c0.828,0,1.5-0.671,1.5-1.5c0-0.829-0.672-1.5-1.5-1.5H23.005
				c-3.991,0-7.238,3.247-7.238,7.238v14.656c0,3.991,3.247,7.238,7.238,7.238h170.277c3.991,0,7.238-3.247,7.238-7.238V92.896
				C200.521,88.905,197.273,85.658,193.282,85.658z"/>
		</g>
	</g>
	<g>
		<g>
			<path class="st4" d="M27.414,113.29v119.893c0,3.528,2.86,6.388,6.388,6.388h145.977c3.528,0,6.388-2.86,6.388-6.388V113.29
				H27.414z"/>
		</g>
	</g>
	<g>
		<g>
			<path class="st0" d="M186.167,111.79H27.414c-0.828,0-1.5,0.671-1.5,1.5v24.006c0,0.829,0.672,1.5,1.5,1.5
				c0.828,0,1.5-0.671,1.5-1.5V114.79h155.753v118.393c0,2.695-2.192,4.888-4.888,4.888H33.802c-2.695,0-4.888-2.192-4.888-4.888
				v-81.299c0-0.829-0.672-1.5-1.5-1.5c-0.828,0-1.5,0.671-1.5,1.5v81.299c0,4.349,3.538,7.888,7.888,7.888h145.978
				c4.35,0,7.888-3.539,7.888-7.888V113.29C187.667,112.461,186.995,111.79,186.167,111.79z"/>
		</g>
	</g>
	<g>
		<g>
			<rect x="78.564" y="87.158" class="st1" width="60.789" height="26.132"/>
		</g>
	</g>
	<g>
		<g>
			<path class="st0" d="M139.353,85.658H78.564c-0.828,0-1.5,0.671-1.5,1.5v26.132c0,0.829,0.672,1.5,1.5,1.5h60.788
				c0.828,0,1.5-0.671,1.5-1.5V87.158C140.853,86.33,140.181,85.658,139.353,85.658z M137.853,111.79H80.064V88.658h57.788V111.79z"
				/>
		</g>
	</g>
	<g>
		<g>
			<polygon class="st1" points="78.564,113.307 78.564,153.584 97.005,140.543 103.253,153.584 110.724,146.792 119.418,153.584 
				128.927,146.045 139.353,153.584 139.353,113.307 			"/>
		</g>
	</g>
	<g>
		<g>
			<path class="st0" d="M139.353,111.808H78.564c-0.828,0-1.5,0.671-1.5,1.5v40.276c0,0.561,0.313,1.074,0.811,1.332
				c0.497,0.258,1.099,0.217,1.556-0.107l16.989-12.014l5.481,11.438c0.205,0.428,0.6,0.733,1.064,0.824
				c0.096,0.018,0.192,0.028,0.288,0.028c0.37,0,0.731-0.137,1.009-0.39l6.536-5.941l7.696,6.014
				c0.546,0.425,1.314,0.424,1.856-0.007l8.619-6.833l9.505,6.873c0.457,0.331,1.06,0.376,1.562,0.121
				c0.502-0.256,0.817-0.772,0.817-1.336v-40.276C140.853,112.479,140.181,111.808,139.353,111.808z M137.853,150.648l-8.047-5.819
				c-0.545-0.394-1.284-0.378-1.811,0.04l-8.584,6.806l-7.763-6.065c-0.272-0.212-0.599-0.318-0.924-0.318
				c-0.362,0-0.724,0.131-1.009,0.39l-5.98,5.437l-5.378-11.223c-0.19-0.398-0.548-0.693-0.976-0.804
				c-0.427-0.111-0.882-0.028-1.243,0.227l-16.074,11.367v-35.878h57.788V150.648z"/>
		</g>
	</g>
	<g>
		<g>
			<path class="st2" d="M93.676,214.168H46.268c-1.951,0-3.532,1.581-3.532,3.532v3.804c0,1.951,1.581,3.532,3.532,3.532h47.408
				c1.951,0,3.532-1.581,3.532-3.532V217.7C97.208,215.75,95.627,214.168,93.676,214.168z"/>
		</g>
	</g>
	<g>
		<g>
			<path class="st0" d="M93.677,212.669H46.269c-2.774,0-5.032,2.257-5.032,5.032v3.804c0,2.774,2.258,5.032,5.032,5.032h47.408
				c2.774,0,5.031-2.257,5.031-5.032V217.7C98.708,214.926,96.451,212.669,93.677,212.669z M95.708,221.504
				c0,1.12-0.911,2.032-2.031,2.032H46.269c-1.12,0-2.032-0.912-2.032-2.032V217.7c0-1.12,0.912-2.032,2.032-2.032h47.408
				c1.12,0,2.031,0.912,2.031,2.032V221.504z"/>
		</g>
	</g>
	<g>
		<g>
			<path class="st1" d="M47.701,26.106c-0.974,11.564-13.025,13.39-13.025,13.39c10.347,0.487,12.925,14.059,12.925,14.059
				c0.221-9.677,13.321-14.202,13.321-14.202C51.11,38.766,47.701,26.106,47.701,26.106z"/>
		</g>
	</g>
	<g>
		<g>
			<path class="st0" d="M61.013,37.855c-8.604-0.514-11.832-12.024-11.863-12.14c-0.19-0.702-0.848-1.165-1.584-1.102
				c-0.725,0.066-1.298,0.642-1.359,1.367c-0.859,10.215-11.313,11.963-11.754,12.032c-0.763,0.115-1.313,0.79-1.273,1.561
				c0.04,0.77,0.657,1.384,1.428,1.421c9.028,0.425,11.499,12.718,11.523,12.842c0.138,0.711,0.76,1.217,1.473,1.217
				c0.042,0,0.084-0.002,0.126-0.005c0.765-0.064,1.358-0.693,1.375-1.459c0.193-8.508,12.191-12.777,12.312-12.819
				c0.676-0.235,1.092-0.915,0.994-1.623C62.31,38.439,61.727,37.898,61.013,37.855z M47.447,48.201
				c-1.357-3.13-3.709-6.907-7.588-8.876c2.932-1.405,6.409-3.913,8.202-8.273c1.551,3.071,4.2,6.88,8.334,8.722
				C53.389,41.414,49.474,44.18,47.447,48.201z"/>
		</g>
	</g>
	<g>
		<g>
			<path class="st1" d="M26.003,43.087c-0.689,8.179-9.212,9.471-9.212,9.471c7.318,0.344,9.142,9.944,9.142,9.944
				c0.156-6.845,9.422-10.046,9.422-10.046C28.413,52.041,26.003,43.087,26.003,43.087z"/>
		</g>
	</g>
	<g>
		<g>
			<path class="st0" d="M35.444,50.958c-5.767-0.345-7.972-8.185-7.993-8.264c-0.19-0.702-0.865-1.16-1.582-1.102
				c-0.726,0.065-1.3,0.642-1.361,1.368c-0.579,6.871-7.646,8.067-7.942,8.114c-0.763,0.115-1.313,0.79-1.273,1.561
				c0.04,0.77,0.657,1.384,1.428,1.421c6.035,0.284,7.724,8.643,7.739,8.725c0.136,0.712,0.759,1.22,1.473,1.22
				c0.041,0,0.083-0.002,0.125-0.005c0.765-0.063,1.358-0.694,1.376-1.461c0.13-5.709,8.331-8.634,8.412-8.662
				c0.676-0.234,1.093-0.913,0.996-1.622C36.743,51.543,36.158,51.002,35.444,50.958z M25.859,57.754
				c-0.924-1.886-2.34-3.947-4.447-5.28c1.856-1.041,3.697-2.63,4.871-4.917c1.057,1.874,2.654,3.955,4.941,5.224
				C29.374,53.882,27.235,55.521,25.859,57.754z"/>
		</g>
	</g>
	<g>
		<g>
			<path class="st1" d="M26.003,16.429c-0.689,8.179-9.212,9.47-9.212,9.47c7.318,0.344,9.142,9.944,9.142,9.944
				c0.156-6.845,9.422-10.045,9.422-10.045C28.413,25.383,26.003,16.429,26.003,16.429z"/>
		</g>
	</g>
	<g>
		<g>
			<path class="st0" d="M35.444,24.301c-5.767-0.345-7.972-8.186-7.993-8.265c-0.19-0.702-0.865-1.166-1.582-1.102
				c-0.726,0.065-1.3,0.642-1.361,1.368c-0.579,6.871-7.646,8.067-7.942,8.114c-0.763,0.115-1.313,0.79-1.273,1.561
				c0.04,0.77,0.657,1.384,1.428,1.421c6.035,0.284,7.724,8.644,7.739,8.726c0.136,0.713,0.759,1.22,1.473,1.22
				c0.041,0,0.083-0.001,0.125-0.005c0.765-0.063,1.358-0.694,1.376-1.461c0.13-5.709,8.331-8.634,8.412-8.662
				c0.676-0.234,1.093-0.913,0.996-1.622C36.743,24.886,36.158,24.344,35.444,24.301z M25.859,31.096
				c-0.924-1.885-2.34-3.947-4.447-5.28c1.856-1.041,3.697-2.63,4.871-4.917c1.057,1.874,2.654,3.955,4.941,5.224
				C29.375,27.225,27.235,28.864,25.859,31.096z"/>
		</g>
	</g>
	<g>
		<g>
			
				<ellipse transform="matrix(0.9523 -0.3052 0.3052 0.9523 -16.1112 57.3622)" class="st2" cx="175.424" cy="80.215" rx="63.785" ry="63.785"/>
		</g>
	</g>
	<g>
		<g>
			<path class="st0" d="M175.425,14.929c-35.999,0-65.286,29.287-65.286,65.286c0,35.999,29.287,65.285,65.286,65.285
				c35.998,0,65.285-29.287,65.285-65.285C240.71,44.216,211.423,14.929,175.425,14.929z M175.425,142.5
				c-34.345,0-62.286-27.941-62.286-62.285c0-34.344,27.941-62.286,62.286-62.286c34.344,0,62.285,27.941,62.285,62.286
				C237.71,114.559,209.769,142.5,175.425,142.5z"/>
		</g>
	</g>
	<g>
		<g>
			
				<ellipse transform="matrix(0.9239 -0.3827 0.3827 0.9239 -17.3435 73.2381)" class="st27" cx="175.424" cy="80.215" rx="50.215" ry="50.215"/>
		</g>
	</g>
	<g>
		<g>
			<path class="st0" d="M175.425,28.5c-28.516,0-51.715,23.199-51.715,51.715c0,28.516,23.199,51.714,51.715,51.714
				s51.715-23.199,51.715-51.714C227.14,51.699,203.94,28.5,175.425,28.5z M175.425,128.929c-26.861,0-48.715-21.853-48.715-48.714
				c0-26.861,21.853-48.715,48.715-48.715s48.715,21.854,48.715,48.715C224.14,107.076,202.286,128.929,175.425,128.929z"/>
		</g>
	</g>
	<g>
		<g>
			<path class="st30" d="M175.427,145.5c-3.32,0-6.58-0.25-9.76-0.73v88.41c0,2.7-2.19,4.89-4.89,4.89h19c2.7,0,4.89-2.19,4.89-4.89
				v-88.35C181.647,145.26,178.567,145.5,175.427,145.5z"/>
		</g>
	</g>
	<g>
		<g>
			<path class="st0" d="M175.643,39c-0.87,0-1.575,0.705-1.575,1.575v3.201c0,0.87,0.705,1.576,1.575,1.576s1.575-0.705,1.575-1.576
				v-3.201C177.218,39.705,176.513,39,175.643,39z"/>
		</g>
	</g>
	<g>
		<g>
			<path class="st0" d="M175.643,115.317c-0.87,0-1.575,0.705-1.575,1.575v3.201c0,0.87,0.705,1.576,1.575,1.576
				s1.575-0.705,1.575-1.576v-3.201C177.218,116.022,176.513,115.317,175.643,115.317z"/>
		</g>
	</g>
	<g>
		<g>
			<path class="st0" d="M215.402,78.759h-3.201c-0.87,0-1.575,0.705-1.575,1.576c0,0.87,0.705,1.575,1.575,1.575h3.201
				c0.87,0,1.576-0.705,1.576-1.575C216.977,79.464,216.272,78.759,215.402,78.759z"/>
		</g>
	</g>
	<g>
		<g>
			<path class="st0" d="M139.085,78.759h-3.201c-0.87,0-1.576,0.705-1.576,1.576c0,0.87,0.705,1.575,1.576,1.575h3.201
				c0.87,0,1.575-0.705,1.575-1.575C140.66,79.464,139.955,78.759,139.085,78.759z"/>
		</g>
	</g>
	<g>
		<g>
			<path class="st0" d="M204.87,51.107c-0.615-0.615-1.613-0.615-2.228,0l-2.263,2.263c-0.615,0.615-0.615,1.613,0,2.228
				c0.615,0.615,1.613,0.615,2.228,0l2.263-2.263C205.486,52.719,205.486,51.722,204.87,51.107z"/>
		</g>
	</g>
	<g>
		<g>
			<path class="st0" d="M150.906,105.071c-0.615-0.615-1.613-0.615-2.228,0l-2.263,2.263c-0.615,0.615-0.615,1.613,0,2.228
				s1.613,0.615,2.228,0l2.263-2.263C151.522,106.684,151.522,105.686,150.906,105.071z"/>
		</g>
	</g>
	<g>
		<g>
			<path class="st0" d="M204.87,107.334l-2.263-2.263c-0.615-0.615-1.613-0.615-2.228,0c-0.615,0.615-0.615,1.613,0,2.228
				l2.263,2.263c0.615,0.615,1.613,0.615,2.228,0C205.486,108.947,205.486,107.949,204.87,107.334z"/>
		</g>
	</g>
	<g>
		<g>
			<path class="st0" d="M150.906,53.37l-2.263-2.263c-0.615-0.615-1.613-0.615-2.228,0c-0.615,0.615-0.615,1.613,0,2.228
				l2.263,2.263c0.615,0.615,1.613,0.615,2.228,0C151.522,54.982,151.522,53.985,150.906,53.37z"/>
		</g>
	</g>
	<g>
		<g>
			<path class="st0" d="M176.703,79.274l-13.597-13.597c-0.586-0.586-1.535-0.586-2.121,0c-0.586,0.586-0.586,1.536,0,2.121
				l13.597,13.597c0.293,0.293,0.677,0.44,1.061,0.44s0.768-0.147,1.061-0.44C177.289,80.81,177.289,79.859,176.703,79.274z"/>
		</g>
	</g>
	<g>
		<g>
			<path class="st0" d="M199.033,57.44c-0.586-0.586-1.535-0.586-2.121,0L174.83,79.522c-0.586,0.585-0.586,1.536,0,2.121
				c0.293,0.293,0.677,0.439,1.061,0.439s0.768-0.147,1.061-0.439l22.082-22.082C199.619,58.976,199.619,58.025,199.033,57.44z"/>
		</g>
	</g>
</g>
</svg>
