<?xml version="1.0" encoding="utf-8"?>
<!-- Generator: Adobe Illustrator 22.0.1, SVG Export Plug-In . SVG Version: 6.00 Build 0)  -->
<svg version="1.1" id="Layer_1" xmlns="http://www.w3.org/2000/svg" xmlns:xlink="http://www.w3.org/1999/xlink" x="0px" y="0px"
	 viewBox="0 0 256 256" style="enable-background:new 0 0 256 256;" xml:space="preserve">
<style type="text/css">
	.st0{fill:#3A312A;}
	.st1{fill:#D6DF58;}
	.st2{fill:#87796F;}
	.st3{fill:#B9C239;}
	.st4{fill:#EF6D7A;}
	.st5{fill:#FCE8CB;}
	.st6{fill:#D5DE58;}
	.st7{fill:#D34E5C;}
	.st8{fill:#695B51;}
	.st9{fill:#8AC6DD;}
	.st10{fill:#D7E057;}
	.st11{fill:#B8C136;}
	.st12{fill:#F16C7A;}
	.st13{fill:#8AC2D9;}
	.st14{fill:#F7E3C7;}
	.st15{fill:#8AC3DA;}
	.st16{fill:#6DA3BC;}
	.st17{fill:#6A5C52;}
	.st18{fill:#D5DC57;}
	.st19{fill:#F6E2C6;}
	.st20{fill:#DBC7AA;}
	.st21{fill:#CE4E61;}
	.st22{fill:#FAE6CA;}
	.st23{fill:#8AC5DC;}
	.st24{fill:#DDC9AC;}
	.st25{fill:#DECAAD;}
	.st26{fill:#6CA6BE;}
	.st27{fill:#F8E4C8;}
	.st28{fill:#89C4DB;}
	.st29{fill:#ED6E7A;}
	.st30{fill:#D24E5C;}
	.st31{fill:#6DA4BD;}
	.st32{fill:#EB6E7A;}
	.st33{fill:#68A7BB;}
	.st34{fill:#B9BC37;}
	.st35{fill:#CC4E61;}
	.st36{fill:#6CA8BF;}
	.st37{fill-rule:evenodd;clip-rule:evenodd;fill:#D5DE58;}
	.st38{fill:#EA6D7A;}
	.st39{fill:#F4E0C4;}
	.st40{fill-rule:evenodd;clip-rule:evenodd;fill:#D6DF58;}
	.st41{fill-rule:evenodd;clip-rule:evenodd;fill:#F16C7A;}
	.st42{fill:#F3DEC3;}
	.st43{fill-rule:evenodd;clip-rule:evenodd;fill:#FAE6CA;}
	.st44{fill:#F59689;}
	.st45{fill-rule:evenodd;clip-rule:evenodd;fill:#F8E4C8;}
	.st46{fill-rule:evenodd;clip-rule:evenodd;fill:#FCE8CB;}
	.st47{fill:#F5978A;}
	.st48{fill:#D4DB56;}
	.st49{fill-rule:evenodd;clip-rule:evenodd;fill:#D4DA55;}
	.st50{fill-rule:evenodd;clip-rule:evenodd;fill:#EB6E7A;}
	.st51{fill:#68A6B9;}
	.st52{fill-rule:evenodd;clip-rule:evenodd;fill:#D5DC57;}
	.st53{fill:#8AC1D8;}
	.st54{fill:#F5E1C5;}
	.st55{fill:#D4D752;}
	.st56{fill:#D3D751;}
	.st57{fill:#D4D853;}
	.st58{fill:#E96C7A;}
	.st59{fill:#D4DA55;}
	.st60{fill:#8BC0D7;}
	.st61{fill:#87796F;stroke:#3A312A;stroke-width:3;stroke-linecap:round;stroke-linejoin:round;stroke-miterlimit:10;}
</style>
<g>
	<g>
		<g>
			<path class="st12" d="M193.282,87.158H23.005c-3.169,0-5.738,2.569-5.738,5.738v14.656c0,3.169,2.569,5.737,5.738,5.737h170.278
				c3.169,0,5.738-2.569,5.738-5.737V92.896C199.02,89.727,196.451,87.158,193.282,87.158z"/>
		</g>
	</g>
	<g>
		<g>
			<path class="st0" d="M193.282,85.658H67.504c-0.829,0-1.5,0.671-1.5,1.5c0,0.829,0.671,1.5,1.5,1.5h125.778
				c2.337,0,4.238,1.901,4.238,4.238v14.656c0,2.337-1.901,4.238-4.238,4.238H23.005c-2.337,0-4.238-1.901-4.238-4.238V92.896
				c0-2.337,1.901-4.238,4.238-4.238h29.801c0.829,0,1.5-0.671,1.5-1.5c0-0.829-0.671-1.5-1.5-1.5H23.005
				c-3.991,0-7.238,3.247-7.238,7.238v14.656c0,3.991,3.247,7.238,7.238,7.238h170.277c3.991,0,7.238-3.247,7.238-7.238V92.896
				C200.521,88.905,197.273,85.658,193.282,85.658z"/>
		</g>
	</g>
	<g>
		<g>
			<path class="st12" d="M27.414,113.29v119.893c0,3.528,2.86,6.388,6.388,6.388h145.977c3.528,0,6.388-2.86,6.388-6.388V113.29
				H27.414z"/>
		</g>
	</g>
	<g>
		<g>
			<path class="st0" d="M186.167,111.79H27.414c-0.829,0-1.5,0.671-1.5,1.5v24.006c0,0.829,0.671,1.5,1.5,1.5
				c0.829,0,1.5-0.671,1.5-1.5V114.79h155.753v118.393c0,2.695-2.192,4.888-4.888,4.888H33.802c-2.695,0-4.888-2.192-4.888-4.888
				v-81.299c0-0.829-0.671-1.5-1.5-1.5c-0.829,0-1.5,0.671-1.5,1.5v81.299c0,4.349,3.539,7.888,7.888,7.888h145.978
				c4.35,0,7.888-3.539,7.888-7.888V113.29C187.667,112.461,186.995,111.79,186.167,111.79z"/>
		</g>
	</g>
	<g>
		<g>
			<rect x="78.564" y="87.158" class="st10" width="60.788" height="26.132"/>
		</g>
	</g>
	<g>
		<g>
			<path class="st0" d="M139.352,85.658H78.565c-0.829,0-1.5,0.671-1.5,1.5v26.132c0,0.829,0.671,1.5,1.5,1.5h60.788
				c0.828,0,1.5-0.671,1.5-1.5V87.158C140.852,86.33,140.181,85.658,139.352,85.658z M137.852,111.79H80.065V88.658h57.788V111.79z"
				/>
		</g>
	</g>
	<g>
		<g>
			<polygon class="st10" points="78.564,113.307 78.564,153.584 97.005,140.543 103.253,153.584 110.724,146.792 119.418,153.584 
				128.927,146.045 139.353,153.584 139.353,113.307 			"/>
		</g>
	</g>
	<g>
		<g>
			<path class="st0" d="M139.352,111.808H78.565c-0.829,0-1.5,0.671-1.5,1.5v40.276c0,0.561,0.313,1.074,0.81,1.332
				c0.498,0.258,1.098,0.217,1.556-0.107l16.989-12.014l5.481,11.438c0.205,0.428,0.6,0.733,1.065,0.824
				c0.096,0.018,0.192,0.028,0.288,0.028c0.37,0,0.731-0.137,1.009-0.39l6.536-5.941l7.697,6.014
				c0.546,0.426,1.313,0.424,1.855-0.007l8.619-6.833l9.505,6.873c0.457,0.331,1.06,0.376,1.562,0.121
				c0.502-0.256,0.817-0.772,0.817-1.336v-40.276C140.852,112.479,140.181,111.808,139.352,111.808z M137.852,150.648l-8.046-5.818
				c-0.545-0.394-1.285-0.378-1.811,0.04l-8.585,6.806l-7.763-6.065c-0.272-0.212-0.598-0.318-0.923-0.318
				c-0.362,0-0.724,0.131-1.009,0.39l-5.981,5.437l-5.378-11.223c-0.191-0.399-0.548-0.693-0.975-0.804
				c-0.428-0.11-0.883-0.028-1.244,0.227l-16.074,11.367v-35.878h57.788V150.648z"/>
		</g>
	</g>
	<g>
		<g>
			<path class="st2" d="M93.676,214.168H46.268c-1.951,0-3.532,1.581-3.532,3.532v3.804c0,1.951,1.581,3.532,3.532,3.532h47.408
				c1.951,0,3.532-1.581,3.532-3.532V217.7C97.208,215.75,95.627,214.168,93.676,214.168z"/>
		</g>
	</g>
	<g>
		<g>
			<path class="st0" d="M93.676,212.669H46.269c-2.774,0-5.032,2.257-5.032,5.032v3.804c0,2.774,2.257,5.032,5.032,5.032h47.408
				c2.775,0,5.032-2.257,5.032-5.032V217.7C98.708,214.926,96.451,212.669,93.676,212.669z M95.708,221.504
				c0,1.12-0.912,2.032-2.032,2.032H46.269c-1.12,0-2.032-0.912-2.032-2.032V217.7c0-1.12,0.912-2.032,2.032-2.032h47.408
				c1.121,0,2.032,0.912,2.032,2.032V221.504z"/>
		</g>
	</g>
	<g>
		<g>
			<path class="st10" d="M47.701,26.106c-0.974,11.564-13.025,13.39-13.025,13.39c10.347,0.487,12.925,14.059,12.925,14.059
				c0.221-9.677,13.321-14.202,13.321-14.202C51.11,38.766,47.701,26.106,47.701,26.106z"/>
		</g>
	</g>
	<g>
		<g>
			<path class="st0" d="M61.012,37.855c-8.604-0.514-11.831-12.024-11.863-12.14c-0.191-0.703-0.864-1.166-1.584-1.102
				c-0.725,0.066-1.298,0.642-1.359,1.367c-0.86,10.215-11.314,11.963-11.755,12.032c-0.763,0.115-1.313,0.79-1.273,1.561
				c0.04,0.77,0.657,1.384,1.427,1.421c9.028,0.425,11.499,12.718,11.523,12.842c0.137,0.711,0.759,1.217,1.472,1.217
				c0.042,0,0.084-0.002,0.126-0.005c0.764-0.064,1.357-0.693,1.374-1.459c0.195-8.508,12.191-12.777,12.313-12.819
				c0.675-0.235,1.092-0.915,0.994-1.623C62.31,38.439,61.726,37.898,61.012,37.855z M47.447,48.201
				c-1.357-3.13-3.709-6.907-7.587-8.876c2.931-1.405,6.409-3.913,8.202-8.273c1.551,3.071,4.199,6.88,8.333,8.722
				C53.388,41.414,49.474,44.18,47.447,48.201z"/>
		</g>
	</g>
	<g>
		<g>
			<path class="st10" d="M26.003,43.087c-0.689,8.179-9.212,9.471-9.212,9.471c7.318,0.344,9.142,9.944,9.142,9.944
				c0.156-6.845,9.422-10.046,9.422-10.046C28.413,52.041,26.003,43.087,26.003,43.087z"/>
		</g>
	</g>
	<g>
		<g>
			<path class="st0" d="M35.444,50.958c-5.766-0.345-7.972-8.185-7.994-8.264c-0.19-0.702-0.855-1.169-1.582-1.102
				c-0.726,0.065-1.299,0.643-1.36,1.368c-0.579,6.871-7.647,8.067-7.942,8.114c-0.763,0.115-1.313,0.79-1.273,1.561
				c0.04,0.77,0.657,1.384,1.428,1.421c6.035,0.284,7.723,8.643,7.739,8.725c0.135,0.713,0.759,1.22,1.472,1.22
				c0.042,0,0.083-0.002,0.125-0.005c0.765-0.063,1.358-0.693,1.376-1.461c0.131-5.709,8.332-8.634,8.413-8.662
				c0.677-0.234,1.094-0.913,0.996-1.622C36.743,51.543,36.158,51.002,35.444,50.958z M25.859,57.754
				c-0.924-1.886-2.34-3.947-4.447-5.28c1.855-1.041,3.697-2.629,4.87-4.916c1.057,1.874,2.655,3.954,4.941,5.223
				C29.375,53.882,27.236,55.521,25.859,57.754z"/>
		</g>
	</g>
	<g>
		<g>
			<path class="st10" d="M26.003,16.429c-0.689,8.179-9.212,9.47-9.212,9.47c7.318,0.344,9.142,9.944,9.142,9.944
				c0.156-6.845,9.422-10.045,9.422-10.045C28.413,25.383,26.003,16.429,26.003,16.429z"/>
		</g>
	</g>
	<g>
		<g>
			<path class="st0" d="M35.444,24.301c-5.767-0.345-7.973-8.186-7.994-8.265c-0.19-0.702-0.855-1.162-1.582-1.102
				c-0.726,0.065-1.299,0.643-1.36,1.368c-0.579,6.871-7.647,8.067-7.942,8.114c-0.763,0.115-1.313,0.79-1.273,1.561
				c0.04,0.77,0.657,1.384,1.428,1.421c6.035,0.284,7.723,8.644,7.739,8.726c0.135,0.713,0.759,1.22,1.473,1.22
				c0.041,0,0.082-0.001,0.124-0.005c0.765-0.063,1.358-0.693,1.376-1.461c0.131-5.709,8.332-8.634,8.413-8.662
				c0.676-0.234,1.094-0.913,0.996-1.622C36.743,24.886,36.159,24.344,35.444,24.301z M25.859,31.097
				c-0.924-1.886-2.34-3.948-4.447-5.28c1.855-1.041,3.697-2.629,4.87-4.916c1.057,1.874,2.655,3.954,4.941,5.224
				C29.375,27.225,27.236,28.864,25.859,31.097z"/>
		</g>
	</g>
	<g>
		<g>
			
				<ellipse transform="matrix(0.9871 -0.1602 0.1602 0.9871 -10.5838 29.1356)" class="st22" cx="175.424" cy="80.215" rx="63.785" ry="63.785"/>
		</g>
	</g>
	<g>
		<g>
			<path class="st0" d="M175.425,14.929c-35.999,0-65.286,29.287-65.286,65.286c0,35.999,29.287,65.285,65.286,65.285
				c35.998,0,65.285-29.287,65.285-65.285C240.71,44.216,211.423,14.929,175.425,14.929z M175.425,142.5
				c-34.345,0-62.286-27.941-62.286-62.285c0-34.344,27.941-62.286,62.286-62.286c34.344,0,62.285,27.941,62.285,62.286
				C237.71,114.559,209.769,142.5,175.425,142.5z"/>
		</g>
	</g>
	<g>
		<g>
			<path class="st7" d="M175.427,145.5c-3.32,0-6.58-0.25-9.76-0.73v88.41c0,2.7-2.19,4.89-4.89,4.89h19c2.7,0,4.89-2.19,4.89-4.89
				v-88.35C181.647,145.26,178.567,145.5,175.427,145.5z"/>
		</g>
	</g>
	<g>
		<g>
			<path class="st2" d="M211.389,57.771c-2.64-2.927-7.154-3.16-10.082-0.519l-40.147,36.217l-13.979-19.739
				c-2.279-3.218-6.734-3.977-9.949-1.7c-3.217,2.279-3.979,6.733-1.699,9.95l18.622,26.294c1.178,1.665,3.013,2.745,5.038,2.969
				c0.264,0.029,0.526,0.043,0.786,0.043c1.756,0,3.463-0.649,4.781-1.838l46.111-41.598
				C213.797,65.211,214.03,60.698,211.389,57.771z"/>
		</g>
	</g>
	<g>
		<g>
			<path class="st0" d="M212.503,56.766c-3.191-3.537-8.665-3.818-12.2-0.628L161.41,91.225l-13.005-18.361
				c-2.753-3.887-8.154-4.809-12.04-2.057c-1.883,1.333-3.134,3.321-3.522,5.595c-0.389,2.274,0.133,4.564,1.467,6.446l18.62,26.293
				c1.424,2.012,3.646,3.322,6.102,3.595c0.317,0.034,0.633,0.052,0.946,0.052c2.141,0,4.195-0.79,5.786-2.224l46.111-41.598
				C215.411,65.774,215.693,60.302,212.503,56.766z M209.866,66.737l-46.111,41.598c-1.192,1.075-2.817,1.586-4.398,1.418
				c-1.6-0.178-3.05-1.032-3.979-2.346l-18.621-26.294c-0.87-1.229-1.21-2.723-0.957-4.207c0.254-1.484,1.07-2.781,2.3-3.652
				c0.986-0.699,2.123-1.035,3.249-1.035c1.769,0,3.512,0.828,4.609,2.378l13.979,19.739c0.247,0.35,0.633,0.577,1.059,0.624
				c0.422,0.049,0.852-0.09,1.17-0.377l40.146-36.217c2.309-2.082,5.881-1.898,7.963,0.41
				C212.357,61.083,212.174,64.655,209.866,66.737z"/>
		</g>
	</g>
</g>
</svg>
